<svg xmlns="http://www.w3.org/2000/svg" viewBox="0 0 162.84 162.84"><defs><style>.cls-1{fill:#0ead25;}.cls-2{opacity:0.2;}.cls-3{fill:#cecba7;}.cls-4{fill:#fed19a;}.cls-5{fill:#f9d3a0;}.cls-6{opacity:0.1;}.cls-7{fill:#f9f7c6;}.cls-8{fill:#73bff9;}</style></defs><title>Asset 27</title><g id="Layer_2" data-name="Layer 2"><g id="Icons_mehr" data-name="Icons + mehr"><g id="Screen_3" data-name="Screen 3"><g id="Blond"><circle class="cls-1" cx="81.42" cy="81.42" r="81.42"/><path class="cls-2" d="M154.07,118.2,117.29,42.41l-77,78.82,5.27,10.85-2.28,9L51,156.94A81.49,81.49,0,0,0,154.07,118.2Z"/><g id="Girl"><g id="Body"><rect id="Hair_Backg." data-name="Hair Backg." class="cls-3" x="47.9" y="58.39" width="70.48" height="62.19"/><rect id="Hair._Backg._Shadow" data-name="Hair. Backg. Shadow" class="cls-2" x="81.19" y="58.39" width="35.32" height="62.19"/><g id="Shoulders"><path id="Laft" class="cls-4" d="M81.83,103v37.78h-38s-1-16.9,16.9-17.83C75.73,122.13,71,100.5,71,100.5Z"/><path id="Right" class="cls-4" d="M81.82,103v37.78h38s1-16.9-16.9-17.83c-15-.78-10.33-22.41-10.33-22.41Z"/><path id="Shadow" class="cls-2" d="M81.82,103v37.78h38s1-16.9-16.9-17.83c-15-.78-10.33-22.41-10.33-22.41Z"/></g><g id="Head"><ellipse id="Head-2" data-name="Head" class="cls-5" cx="82.13" cy="62.4" rx="32.62" ry="40.6"/><path id="Shadow-2" data-name="Shadow" class="cls-6" d="M82.28,21.8h-.47V103h.47c18,0,32.62-18.18,32.62-40.6S100.3,21.8,82.28,21.8Z"/></g><g id="Hair"><g id="Left"><path class="cls-7" d="M69.38,58.16a86.55,86.55,0,0,0,12.22-2V22C44.84,19.32,40.25,60.46,40.25,60.46v60.76H56S38.06,61.29,69.38,58.16Z"/><path class="cls-7" d="M56,121.22"/></g><path id="Right-2" data-name="Right" class="cls-7" d="M108.32,121.22h14.62V60.46S118.34,19.32,81.59,22V56.18c16.18-4,18.48-11,18.48-11s1,8.56,10.44,19.63c4.24,5,1.88,48.65-1.88,56"/><path id="Shadow-3" data-name="Shadow" class="cls-2" d="M108.29,121.22h14.62V60.46S118.31,19.32,81.56,22V56.18c16.18-4,18.48-11,18.48-11s1,8.56,10.44,19.63c4.24,5,1.88,48.65-1.88,56"/></g></g><g id="Shirt"><path id="Left-2" data-name="Left" class="cls-8" d="M43.24,141s.26-17.63,17.16-18.11l21.43,6.79V141Z"/><path id="Right-3" data-name="Right" class="cls-8" d="M120.41,141s-.26-17.63-17.16-18.11l-21.43,6.79V141Z"/><path id="Shadow-4" data-name="Shadow" class="cls-2" d="M120.41,141s-.26-17.63-17.16-18.11l-21.43,6.79V141Z"/></g></g></g></g></g></g></svg>