<svg xmlns="http://www.w3.org/2000/svg" viewBox="0 0 110 110"><defs><style>.cls-1{fill:#fff;}.cls-2{opacity:0.2;}.cls-3{fill:#ee2c2d;}</style></defs><title>Asset 24</title><g id="Layer_2" data-name="Layer 2"><g id="Icons_mehr" data-name="Icons + mehr"><g id="Screen_2" data-name="Screen 2"><g id="Castles"><circle class="cls-1" cx="55" cy="55" r="55"/><path class="cls-2" d="M103.67,80.5,91.21,54.84v2.33h-3l-1-2.32v2.31l-2.64,0-1.13-2.33L81.19,58l-.55-.88-1.13-2.33v5.88h.78v4.85L78.23,61l-24-49.44V31.33l-8.93,2.41,2.19,4.51V53.37l-3.61,0-.49-1H41.3L40,49.64V63.17H34.81l-4-8.3v2.29H28l-1.11-2.29v2.29H24.17l-1.11-2.29v2.29H20.2l-1.11-2.29V59H17.28l2.26,4.66v6.56l4.29,8.84-.06,8,8.85,18.08A55,55,0,0,0,103.67,80.5Z"/><path id="Castle_Shape_purple" data-name="Castle Shape purple" class="cls-3" d="M19.53,61.31v8.93L23.77,76v11l26.33-.29V76.13A4.14,4.14,0,0,1,54.24,72h0a4.14,4.14,0,0,1,4.14,4.14V86.77h0l26.33.29V76l4.24-5.78V61.31h0l2.24-2.24V54.84H89.39v2.32H87.25V54.85H85.43v2.31h-2V54.85H81.65v2.31H79.51V54.84H77.7v4.23l2.1,2.19h0v5H76.57V63.17H69.15v-5.8l2.28-2.28V49.66H68.49v2.64H65.11v1l-4.12,0V33.76h2.17s.37-3.35,0-3.35H61L54.54,16.79v-5l-.23-.05c-.13,0-3.13-.67-5,.51-1.67,1.06-4.53.56-4.56.55l-1-.19.8.71a5.22,5.22,0,0,0,5,1,10,10,0,0,1,4.44-.56v3L47.49,30.41H45.32c-.37,0,0,3.35,0,3.35h2.17V53.37l-4.12,0v-1H40V49.66H37.06V55.1l2.28,2.28v5.8H31.92v3.08H28.69v-5h0l2.1-2.19V54.84H29v2.32H26.83V54.85H25v2.31H23V54.85H21.23v2.31H19.09V54.84H17.28v4.23l2.24,2.24m5.76,5.58H22.63v-3.3h2.64ZM56,69.18H52.38v-6.5a1.6,1.6,0,0,1,1.6-1.6h.4a1.6,1.6,0,0,1,1.6,1.6Zm.15-20.47H52.53V36.89a1.59,1.59,0,0,1,1.59-1.59h.4a1.59,1.59,0,0,1,1.59,1.59ZM85.69,66.89H83.05v-3.3h2.64Z"/><path class="cls-2" d="M89.39,54.75v2.32H87.25V54.76H85.43v2.31h-2V54.76H81.65v2.31H79.52V54.75H77.7V59l2.1,2.19h0v5H76.57V63.08H69.15v-5.8L71.43,55V49.57H68.49v2.64H65.11v1l-4.12,0V33.67h2.17s.37-3.35,0-3.35H61L54.54,16.69v-5l-.24-.05h-.06V35.2h.29a1.59,1.59,0,0,1,1.59,1.59V48.61H54.24V61h.14a1.6,1.6,0,0,1,1.6,1.6v6.5H54.24v2.81h0A4.14,4.14,0,0,1,58.38,76V86.68h0L84.71,87v-11L89,70.15V61.22h0L91.21,59V54.75Zm-3.7,12H83.05v-3.3h2.64Z"/></g></g></g></g></svg>