<svg xmlns="http://www.w3.org/2000/svg" viewBox="0 0 170 170"><defs><style>.cls-1{fill:#29b725;}.cls-2{fill:#08e407;}.cls-3{fill:#07e484;}.cls-4{fill:#1cd165;}.cls-5{fill:#cbcfd5;}.cls-6{fill:#e2e5ea;}.cls-7{fill:#0895ee;}.cls-8{fill:#f2f3f5;}.cls-19,.cls-9{fill:#fff;}.cls-10,.cls-11,.cls-12{fill:none;}.cls-10,.cls-11{stroke:#fff;}.cls-10,.cls-11,.cls-12,.cls-19{stroke-miterlimit:10;}.cls-10{stroke-width:1.51px;}.cls-11{stroke-width:2.03px;}.cls-12{stroke:#253b48;stroke-width:1.6px;}.cls-13{fill:#fb6020;}.cls-14{fill:#ef716a;}.cls-15{fill:#e77b6f;}.cls-16{fill:#d1716c;}.cls-17{fill:#dd6b66;}.cls-18{fill:#3e6874;}.cls-19{stroke:#3e6874;stroke-width:1.13px;}.cls-20{opacity:0.2;}</style></defs><title>Asset 29</title><g id="Layer_2" data-name="Layer 2"><g id="Icons_mehr" data-name="Icons + mehr"><g id="Screen_4" data-name="Screen 4"><g id="Cinema"><rect class="cls-1" x="85" width="85" height="85"/><rect class="cls-2" y="0.2" width="85" height="85"/><rect class="cls-3" x="85" y="85" width="85" height="85"/><rect class="cls-4" y="85" width="85" height="85"/><g id="Cinema-2" data-name="Cinema"><g id="Popcorn"><path class="cls-5" d="M32.92,31a2.57,2.57,0,0,0-2-4.62A2.57,2.57,0,1,0,26.69,28a2.57,2.57,0,1,0,3.83,3.36A2.57,2.57,0,0,0,32.92,31Z"/><path class="cls-5" d="M55.76,27.23a2.57,2.57,0,0,0-4.91-1.07,2.57,2.57,0,1,0-1.19,4.36,2.57,2.57,0,1,0,5-1.16A2.57,2.57,0,0,0,55.76,27.23Z"/><path class="cls-5" d="M40.32,20.22a2.57,2.57,0,0,0-4,3A2.57,2.57,0,1,0,38.85,27a2.57,2.57,0,1,0,2.35-4.52A2.57,2.57,0,0,0,40.32,20.22Z"/><path class="cls-6" d="M34.52,29.93a2.57,2.57,0,0,0-4.7,1.78A2.57,2.57,0,1,0,31.2,36a2.57,2.57,0,1,0,3.53-3.67A2.57,2.57,0,0,0,34.52,29.93Z"/><path class="cls-6" d="M40.4,33.12a2.57,2.57,0,0,0-4.7,1.78,2.57,2.57,0,1,0,1.38,4.3,2.57,2.57,0,1,0,3.53-3.67A2.57,2.57,0,0,0,40.4,33.12Z"/><path class="cls-6" d="M44.6,26.6a2.57,2.57,0,0,0-4.7,1.78,2.57,2.57,0,1,0,1.38,4.3A2.57,2.57,0,1,0,44.81,29,2.57,2.57,0,0,0,44.6,26.6Z"/><path class="cls-6" d="M53.44,31.45a2.57,2.57,0,0,0-4.7,1.78,2.57,2.57,0,1,0,1.38,4.3,2.57,2.57,0,1,0,3.53-3.67A2.57,2.57,0,0,0,53.44,31.45Z"/><path class="cls-6" d="M61.6,28.51a2.57,2.57,0,0,0-4.7,1.78,2.57,2.57,0,1,0,1.38,4.3,2.57,2.57,0,1,0,3.53-3.67A2.57,2.57,0,0,0,61.6,28.51Z"/><path class="cls-6" d="M61.1,31.54a2.57,2.57,0,0,0-4.7,1.78,2.57,2.57,0,1,0,1.38,4.3A2.57,2.57,0,1,0,61.31,34,2.57,2.57,0,0,0,61.1,31.54Z"/><polygon class="cls-7" points="42.63 38.02 25.79 38.02 30.08 71.32 42.63 71.32 55.17 71.32 59.46 38.02 42.63 38.02"/><path class="cls-8" d="M39.49,25.45a2.57,2.57,0,0,0-4.42,2.38A2.57,2.57,0,1,0,37,31.92a2.57,2.57,0,1,0,3-4.11A2.57,2.57,0,0,0,39.49,25.45Z"/><path class="cls-8" d="M56,29.66A2.57,2.57,0,0,0,51.55,32a2.57,2.57,0,1,0,1.94,4.08,2.57,2.57,0,1,0,3-4.11A2.57,2.57,0,0,0,56,29.66Z"/><path class="cls-8" d="M44.61,28.15a2.57,2.57,0,0,0-4.42,2.38,2.57,2.57,0,1,0,1.94,4.08,2.57,2.57,0,1,0,3-4.11A2.57,2.57,0,0,0,44.61,28.15Z"/><path class="cls-8" d="M48.3,24a2.57,2.57,0,0,0-4.42,2.38,2.57,2.57,0,1,0,1.94,4.08,2.57,2.57,0,1,0,3-4.11A2.57,2.57,0,0,0,48.3,24Z"/><path class="cls-8" d="M46.31,31.09a2.57,2.57,0,0,0-4.42,2.38,2.57,2.57,0,1,0,1.94,4.08,2.57,2.57,0,1,0,3-4.11A2.57,2.57,0,0,0,46.31,31.09Z"/><path class="cls-8" d="M31.31,34.14a2.57,2.57,0,0,0-4.39-2.45,2.57,2.57,0,1,0-2.41,3.83,2.57,2.57,0,1,0,5.08.34A2.57,2.57,0,0,0,31.31,34.14Z"/><path class="cls-9" d="M35.72,33.07a2.57,2.57,0,0,0-5,0,2.57,2.57,0,1,0-.22,4.52,2.57,2.57,0,1,0,4.59-2.2A2.57,2.57,0,0,0,35.72,33.07Z"/><path class="cls-9" d="M42.89,31a2.57,2.57,0,0,0-5,0,2.57,2.57,0,1,0-.22,4.52,2.57,2.57,0,1,0,4.59-2.2A2.57,2.57,0,0,0,42.89,31Z"/><path class="cls-9" d="M52.63,29.25a2.57,2.57,0,0,0-5,0,2.57,2.57,0,1,0-.22,4.52A2.57,2.57,0,1,0,52,31.58,2.57,2.57,0,0,0,52.63,29.25Z"/><path class="cls-9" d="M59.14,33.07a2.57,2.57,0,0,0-5,0,2.57,2.57,0,1,0-.22,4.52,2.57,2.57,0,1,0,4.59-2.2A2.57,2.57,0,0,0,59.14,33.07Z"/><line class="cls-10" x1="33.96" y1="71.32" x2="30.65" y2="38.02"/><line class="cls-10" x1="52.21" y1="71.24" x2="55.51" y2="38.02"/><line class="cls-10" x1="48.84" y1="71.32" x2="50.62" y2="38.02"/><line class="cls-10" x1="37.17" y1="71.32" x2="35.4" y2="38.02"/><line class="cls-10" x1="40.44" y1="71.32" x2="39.8" y2="37.72"/><line class="cls-10" x1="40.44" y1="71.32" x2="39.8" y2="37.72"/><line class="cls-10" x1="45" y1="71.32" x2="45.64" y2="37.87"/><line class="cls-11" x1="59.54" y1="38.89" x2="25.79" y2="38.89"/></g><g id="Cup"><path class="cls-12" d="M134.18,33.67l3-11.59a1.4,1.4,0,0,1,2.18-.78L147,26.87"/><polygon class="cls-8" points="130.63 37.34 120.65 37.34 122.92 64.53 130.63 64.53 138.34 64.53 140.6 37.34 130.63 37.34"/><rect class="cls-6" x="119.9" y="35.54" width="21.46" height="1.8" rx="0.8" ry="0.8"/><polygon class="cls-13" points="138.15 31.95 130.72 31.95 123.31 31.95 120.65 35.55 130.72 35.55 140.8 35.55 138.15 31.95"/></g><g id="Chair"><rect class="cls-14" x="24.34" y="102.54" width="36.69" height="30.01" rx="4.64" ry="4.64"/><rect class="cls-15" x="24.34" y="125.29" width="36.69" height="26.5"/><rect class="cls-16" x="27.55" y="132.55" width="30.56" height="1.08"/><rect class="cls-17" x="56.92" y="125.29" width="8.35" height="26.5" rx="1.45" ry="1.45"/><rect class="cls-17" x="20.16" y="125.29" width="8.35" height="26.5" rx="1.45" ry="1.45"/><rect class="cls-18" x="29.32" y="151.8" width="26.62" height="3.75" rx="0.48" ry="0.48"/></g><g id="Filmstrip"><path class="cls-18" d="M134.5,103.48l0,19.4,0,17.18h5.12l0-17.18,0-19.4Zm3.82,36.45H136V138.1h2.29Zm0-3H136v-1.83h2.29Zm0-3H136v-1.83h2.29Zm0-3H136v-1.83h2.29Zm0-3H136V126.2h2.29Zm0-3H136v-1.83h2.29Zm-2.45-19.23h2.29v1.83h-2.29Zm0,3h2.29v1.83h-2.29Zm0,3h2.29v1.83h-2.29Zm0,3h2.29v1.83h-2.29Zm0,3h2.29v1.83h-2.29Zm0,3h2.29v1.83h-2.29Z"/><path class="cls-18" d="M112.76,103.51l0,19.4,0,17.15h5.12l0-17.15,0-19.4ZM116.57,140h-2.29v-1.83h2.29Zm0-3h-2.29v-1.83h2.29Zm0-3h-2.29v-1.83h2.29Zm0-3h-2.29V129.2h2.29Zm0-3h-2.29v-1.83h2.29Zm0-3h-2.29v-1.83h2.29Zm-2.45-19.23h2.29v1.83h-2.29Zm0,3h2.29v1.83h-2.29Zm0,3h2.29v1.83h-2.29Zm0,3h2.29v1.83h-2.29Zm0,3h2.29v1.83h-2.29Zm0,3h2.29v1.83h-2.29Z"/><rect class="cls-19" x="117.37" y="107.98" width="17.69" height="11.45"/><rect class="cls-19" x="117.37" y="119.43" width="17.69" height="11.45"/><rect class="cls-19" x="117.37" y="130.88" width="17.69" height="11.45"/><rect class="cls-19" x="117.37" y="142.33" width="17.69" height="11.45"/></g><path class="cls-18" d="M134.55,155.89h5.12v-.75l0-15.09h-5.12l0,14.09Zm3.64-1.09h-2.29V153h2.29Zm0-3h-2.29V150h2.29Zm0-3H135.9V147h2.29Zm0-3H135.9V144h2.29Zm0-4.81v1.83H135.9v-1.83Z"/><path class="cls-18" d="M112.81,155.89h5.12v-.75l0-15.09H112.8l0,14.09Zm3.64-1.09h-2.29V153h2.29Zm0-3h-2.29V150h2.29Zm0-3h-2.29V147h2.29Zm0-3h-2.29V144h2.29Zm0-4.81v1.83h-2.29v-1.83Z"/><path class="cls-20" d="M63.78,125.29H61V107.18a4.64,4.64,0,0,0-4.64-4.64H42.68v53H55.43a.48.48,0,0,0,.48-.48v-2.78a.48.48,0,0,0-.48-.48h8.35a1.45,1.45,0,0,0,1.45-1.45v-23.6A1.45,1.45,0,0,0,63.78,125.29Z"/><path class="cls-20" d="M62.47,31.61a2.57,2.57,0,0,0-.65-.68,2.57,2.57,0,1,0-4.91-.63,2.58,2.58,0,0,0-.55,0A2.54,2.54,0,0,0,55.07,29a2.57,2.57,0,1,0-4.22-2.83,2.56,2.56,0,0,0-1.78-.71h-.17a2.57,2.57,0,0,0-5.12.35,2.58,2.58,0,0,0-.93-.34,2.58,2.58,0,0,0-.36-2V71.32H55.17l4-31.4h.32V38.6a2.2,2.2,0,0,0,1.68-.4,2.57,2.57,0,0,0,.88-3.33A2.57,2.57,0,0,0,62.47,31.61Z"/><g class="cls-20"><polygon points="130.63 37.34 130.63 64.53 138.34 64.53 140.6 37.34 130.63 37.34"/><path d="M138.32,21.86a.59.59,0,0,1,.56.08l7.63,5.58.94-1.29-7.63-5.58a2.2,2.2,0,0,0-3.43,1.23L133.8,32h-3.17v5.39h9.93a.8.8,0,0,0,.8-.8v-.2a.8.8,0,0,0-.68-.79h.12L138.14,32h-2.69l2.49-9.68A.59.59,0,0,1,138.32,21.86Z"/></g><polygon class="cls-20" points="20.57 151.32 38.45 170 85 170 84.85 130.13 59.7 103.86 20.57 151.32"/><polyline class="cls-20" points="122.88 64.53 142.52 85.2 170 85 170 49.91 147.5 26.24 138.15 21.02 122.92 64.53"/><polygon class="cls-20" points="30.22 71.32 43.18 85 85 85 85.02 53.15 61.4 28.22 57.7 28.22 54.96 25.33 50.06 26.52 49.77 25.56 48.27 23.98 44.22 24.32 40.26 20.13 35.36 28.09 34.17 28.09 33.45 27.34 22.73 34.61 24.58 36.57 27.99 40.49 30.22 71.32"/></g></g></g></g></g></svg>