<svg xmlns="http://www.w3.org/2000/svg" viewBox="0 0 203.26 273.57"><defs><style>.cls-1{isolation:isolate;}.cls-2{fill:#ee2c2d;}.cls-3{opacity:0.2;}.cls-4{fill:#2d2d2d;}.cls-5{fill:#7b4937;}.cls-6{fill:#462018;}.cls-7{fill:#e08f59;}.cls-8{fill:#f9ad6d;}.cls-9{fill:#c07139;}.cls-10{fill:#5a2520;}.cls-11{fill:#883e2d;}.cls-12{fill:#915b37;}.cls-13{fill:#dddfe0;}.cls-14{fill:#783e28;}.cls-15{fill:#a08d82;opacity:0.51;mix-blend-mode:multiply;}.cls-16,.cls-17{fill:#fff;stroke-width:0.17px;}.cls-16{stroke:#000;}.cls-16,.cls-17,.cls-21{stroke-miterlimit:10;}.cls-17{stroke:#2d2d2d;}.cls-18{fill:#473d39;}.cls-19{fill:#2d396b;}.cls-20{fill:#161b39;}.cls-21{fill:none;stroke:#161b39;stroke-width:0.27px;}</style></defs><title>Asset 31</title><g class="cls-1"><g id="Layer_2" data-name="Layer 2"><g id="Icons_mehr" data-name="Icons + mehr"><g id="Screen_5" data-name="Screen 5"><g id="Cosy"><rect class="cls-2" width="203.26" height="273.57"/><polygon id="Shadow" class="cls-3" points="113.79 24.88 71.27 72.89 60.07 122.16 71.9 146.13 81.12 237.78 71.39 243.93 85.76 273.57 203.25 273.57 203.25 209.24 113.79 24.88"/><g id="Trouser"><path class="cls-4" d="M112.21,107.17c-4.4-1.12-12.73-1.15-16.94-1.08s-12.54,0-16.94,1.08c0,0-7.67,18.59-7,32.49s9.29,65.09,9.76,98.12c0,0,5.58,3.91,10.45,0l-.46-56.34s.69-46,4.16-46.16c3.46.2,4.16,46.16,4.16,46.16L99,237.78c4.88,3.91,10.46,0,10.46,0,.46-33,9.06-84.22,9.76-98.12S112.21,107.17,112.21,107.17Z"/><path d="M95.1,109.85c7.15,0,13.42-1.08,17-2.71-4.43-1.09-12.64-1.12-16.81-1s-12.54,0-16.94,1.08l0,.06C81.91,108.81,88.08,109.85,95.1,109.85Z"/><path id="Shadow-2" data-name="Shadow" class="cls-3" d="M112.58,107.17l-.13,0h0l-.22,0-.62-.14-.25,0-.71-.13-.24,0-.78-.11-.23,0-.84-.1-.21,0-.91-.09h-.19l-1-.07h-.18l-1-.06H105l-1-.05h-.15l-1,0h-.09l-1.06,0h-.14l-1,0H95.87v29.27c3.27,2.1,3.94,46.08,3.94,46.08l-.46,56.34c4.88,3.91,10.46,0,10.46,0,.46-33,9.06-84.22,9.76-98.12S112.58,107.17,112.58,107.17Z"/></g><g id="Bag"><path class="cls-5" d="M116.42,187.92V210h-1a9.78,9.78,0,0,1-9.78-9.78V189.27a1.35,1.35,0,0,1,1.35-1.35Z"/><path class="cls-5" d="M149.95,189.27v10.94a9.75,9.75,0,0,1-3.45,7.45h0a9.73,9.73,0,0,1-6.33,2.33h-1V187.92h9.47A1.35,1.35,0,0,1,149.95,189.27Z"/><path class="cls-6" d="M125.95,149.4c-.27-.85-.56-1.7-.8-2.57-.44-1.58,1.34-2.5,2.68-2.5s3,.82,2.72,2.34c-.16.91-.41,1.82-.61,2.72-.28,1.24,1.62,1.76,1.9.52.2-.89.41-1.77.6-2.66a3.79,3.79,0,0,0-1.63-4c-2.84-2-8.4-.32-7.63,3.78a26.5,26.5,0,0,0,.88,2.89c.38,1.21,2.28.69,1.9-.52Z"/><path class="cls-7" d="M146.85,159.93V206a4,4,0,0,1-.35,1.63h0a4,4,0,0,1-3.61,2.33H112.65a4,4,0,0,1-4-4V159.93A12.29,12.29,0,0,1,121,147.64h13.58A12.29,12.29,0,0,1,146.85,159.93Z"/><path class="cls-8" d="M126.68,178.17h0a.8.8,0,0,1-.8-.8V166.65a.8.8,0,0,1,.8-.8h0a.8.8,0,0,1,.8.8v10.72A.8.8,0,0,1,126.68,178.17Z"/><path class="cls-8" d="M130.43,178.17h0a.8.8,0,0,1-.8-.8V166.65a.8.8,0,0,1,.8-.8h0a.8.8,0,0,1,.8.8v10.72A.8.8,0,0,1,130.43,178.17Z"/><rect class="cls-9" x="112.75" y="181.29" width="30.04" height="25.11" rx="4.11" ry="4.11"/><rect class="cls-10" x="131.3" y="196.23" width="10.47" height="7.43" rx="1.8" ry="1.8"/><rect class="cls-11" x="131.97" y="196.91" width="9.12" height="6.08" rx="1.12" ry="1.12"/><path class="cls-12" d="M141.77,187.94h0a.56.56,0,0,1-.56.56H114.34a.56.56,0,0,1-.56-.56h0a.56.56,0,0,1,.56-.56h26.87A.56.56,0,0,1,141.77,187.94Z"/><path class="cls-9" d="M147.19,158.29a14.66,14.66,0,0,0-4.87-9.89,3,3,0,0,0-2-.75H115.2a3,3,0,0,0-2,.75,14.66,14.66,0,0,0-4.87,9.89l-.46,5.95c-.23,2.91,1.77,5.42,4.32,5.42h31.14c2.55,0,4.55-2.51,4.32-5.42Z"/><path class="cls-13" d="M116.42,188.68h-1a.65.65,0,0,1-.65-.65h0a.65.65,0,0,1,.65-.65h1a.65.65,0,0,1,.65.65h0A.65.65,0,0,1,116.42,188.68Z"/><path class="cls-10" d="M116.7,194.69h-1.58a.65.65,0,0,1-.64-.74l.79-5.57a.65.65,0,0,1,.64-.56h0a.65.65,0,0,1,.64.56l.79,5.57A.65.65,0,0,1,116.7,194.69Z"/><path class="cls-14" d="M118.65,188.31l-.37-.37.37-.37a.1.1,0,0,0-.14-.14l-.37.37-.37-.37a.1.1,0,0,0-.14.14l.37.37-.37.37a.1.1,0,0,0,.14.14l.37-.37.37.37A.1.1,0,0,0,118.65,188.31Z"/><path class="cls-14" d="M119.72,188.31l-.37-.37.37-.37a.1.1,0,0,0-.14-.14l-.37.37-.37-.37a.1.1,0,0,0-.14.14l.37.37-.37.37a.1.1,0,0,0,.14.14l.37-.37.37.37A.1.1,0,0,0,119.72,188.31Z"/><path class="cls-14" d="M120.79,188.31l-.37-.37.37-.37a.1.1,0,0,0-.14-.14l-.37.37-.37-.37a.1.1,0,0,0-.14.14l.37.37-.37.37a.1.1,0,0,0,.14.14l.37-.37.37.37A.1.1,0,0,0,120.79,188.31Z"/><path class="cls-14" d="M121.86,188.31l-.37-.37.37-.37a.1.1,0,0,0-.14-.14l-.37.37-.37-.37a.1.1,0,0,0-.14.14l.37.37-.37.37a.1.1,0,0,0,.14.14l.37-.37.37.37A.1.1,0,0,0,121.86,188.31Z"/><path class="cls-14" d="M122.93,188.31l-.37-.37.37-.37a.1.1,0,0,0-.14-.14l-.37.37-.37-.37a.1.1,0,0,0-.14.14l.37.37-.37.37a.1.1,0,0,0,.14.14l.37-.37.37.37A.1.1,0,0,0,122.93,188.31Z"/><path class="cls-14" d="M124,188.31l-.37-.37.37-.37a.1.1,0,0,0-.14-.14l-.37.37-.37-.37a.1.1,0,0,0-.14.14l.37.37-.37.37a.1.1,0,0,0,.14.14l.37-.37.37.37A.1.1,0,0,0,124,188.31Z"/><path class="cls-14" d="M125.08,188.31l-.37-.37.37-.37a.1.1,0,0,0-.14-.14l-.37.37-.37-.37a.1.1,0,0,0-.14.14l.37.37-.37.37a.1.1,0,0,0,.14.14l.37-.37.37.37A.1.1,0,0,0,125.08,188.31Z"/><path class="cls-14" d="M126.15,188.31l-.37-.37.37-.37a.1.1,0,0,0-.14-.14l-.37.37-.37-.37a.1.1,0,0,0-.14.14l.37.37-.37.37a.1.1,0,0,0,.14.14l.37-.37.37.37A.1.1,0,0,0,126.15,188.31Z"/><path class="cls-14" d="M127.22,188.31l-.37-.37.37-.37a.1.1,0,0,0-.14-.14l-.37.37-.37-.37a.1.1,0,0,0-.14.14l.37.37-.37.37a.1.1,0,0,0,.14.14l.37-.37.37.37A.1.1,0,0,0,127.22,188.31Z"/><path class="cls-14" d="M128.29,188.31l-.37-.37.37-.37a.1.1,0,0,0-.14-.14l-.37.37-.37-.37a.1.1,0,0,0-.14.14l.37.37-.37.37a.1.1,0,0,0,.14.14l.37-.37.37.37A.1.1,0,0,0,128.29,188.31Z"/><path class="cls-14" d="M129.36,188.31l-.37-.37.37-.37a.1.1,0,0,0-.14-.14l-.37.37-.37-.37a.1.1,0,0,0-.14.14l.37.37-.37.37a.1.1,0,0,0,.14.14l.37-.37.37.37A.1.1,0,0,0,129.36,188.31Z"/><path class="cls-14" d="M130.44,188.31l-.37-.37.37-.37a.1.1,0,0,0-.14-.14l-.37.37-.37-.37a.1.1,0,0,0-.14.14l.37.37-.37.37a.1.1,0,0,0,.14.14l.37-.37.37.37A.1.1,0,0,0,130.44,188.31Z"/><path class="cls-14" d="M131.51,188.31l-.37-.37.37-.37a.1.1,0,0,0-.14-.14l-.37.37-.37-.37a.1.1,0,0,0-.14.14l.37.37-.37.37a.1.1,0,0,0,.14.14l.37-.37.37.37A.1.1,0,0,0,131.51,188.31Z"/><path class="cls-14" d="M132.58,188.31l-.37-.37.37-.37a.1.1,0,0,0-.14-.14l-.37.37-.37-.37a.1.1,0,0,0-.14.14l.37.37-.37.37a.1.1,0,0,0,.14.14l.37-.37.37.37A.1.1,0,0,0,132.58,188.31Z"/><path class="cls-14" d="M133.65,188.31l-.37-.37.37-.37a.1.1,0,0,0-.14-.14l-.37.37-.37-.37a.1.1,0,0,0-.14.14l.37.37-.37.37a.1.1,0,0,0,.14.14l.37-.37.37.37A.1.1,0,0,0,133.65,188.31Z"/><path class="cls-14" d="M134.72,188.31l-.37-.37.37-.37a.1.1,0,0,0-.14-.14l-.37.37-.37-.37a.1.1,0,0,0-.14.14l.37.37-.37.37a.1.1,0,0,0,.14.14l.37-.37.37.37A.1.1,0,0,0,134.72,188.31Z"/><path class="cls-14" d="M135.79,188.31l-.37-.37.37-.37a.1.1,0,0,0-.14-.14l-.37.37-.37-.37a.1.1,0,0,0-.14.14l.37.37-.37.37a.1.1,0,0,0,.14.14l.37-.37.37.37A.1.1,0,0,0,135.79,188.31Z"/><path class="cls-14" d="M136.87,188.31l-.37-.37.37-.37a.1.1,0,0,0-.14-.14l-.37.37-.37-.37a.1.1,0,0,0-.14.14l.37.37-.37.37a.1.1,0,0,0,.14.14l.37-.37.37.37A.1.1,0,0,0,136.87,188.31Z"/><path class="cls-14" d="M137.94,188.31l-.37-.37.37-.37a.1.1,0,0,0-.14-.14l-.37.37-.37-.37a.1.1,0,0,0-.14.14l.37.37-.37.37a.1.1,0,0,0,.14.14l.37-.37.37.37A.1.1,0,0,0,137.94,188.31Z"/><path class="cls-14" d="M139,188.31l-.37-.37.37-.37a.1.1,0,0,0-.14-.14l-.37.37-.37-.37a.1.1,0,0,0-.14.14l.37.37-.37.37a.1.1,0,0,0,.14.14l.37-.37.37.37A.1.1,0,0,0,139,188.31Z"/><path class="cls-14" d="M140.08,188.31l-.37-.37.37-.37a.1.1,0,0,0-.14-.14l-.37.37-.37-.37a.1.1,0,0,0-.14.14l.37.37-.37.37a.1.1,0,0,0,.14.14l.37-.37.37.37A.1.1,0,0,0,140.08,188.31Z"/><path class="cls-14" d="M141.15,188.31l-.37-.37.37-.37a.1.1,0,0,0-.14-.14l-.37.37-.37-.37a.1.1,0,0,0-.14.14l.37.37-.37.37a.1.1,0,0,0,.14.14l.37-.37.37.37A.1.1,0,0,0,141.15,188.31Z"/><path class="cls-15" d="M119.57,176.92h0a1.45,1.45,0,0,1-1.45-1.45V147.84a.2.2,0,0,1,.2-.2h2.49a.2.2,0,0,1,.2.2v27.63A1.45,1.45,0,0,1,119.57,176.92Z"/><path class="cls-15" d="M137.26,176.92h0a1.45,1.45,0,0,1-1.45-1.45V147.84a.2.2,0,0,1,.2-.2h2.49a.2.2,0,0,1,.2.2v27.63A1.45,1.45,0,0,1,137.26,176.92Z"/><path class="cls-6" d="M118.67,176.92h0a1.45,1.45,0,0,1-1.45-1.45V147.39a.2.2,0,0,1,.2-.2h2.49a.2.2,0,0,1,.2.2v28.08A1.45,1.45,0,0,1,118.67,176.92Z"/><path class="cls-6" d="M136.36,176.92h0a1.45,1.45,0,0,1-1.45-1.45V147.39a.2.2,0,0,1,.2-.2h2.49a.2.2,0,0,1,.2.2v28.08A1.45,1.45,0,0,1,136.36,176.92Z"/><rect class="cls-11" x="115.65" y="172.4" width="6.04" height="2.1" rx="0.46" ry="0.46"/><rect class="cls-11" x="133.34" y="172.4" width="6.04" height="2.1" rx="0.46" ry="0.46"/><path id="Shadow-3" data-name="Shadow" class="cls-3" d="M148.62,187.92h-1.74V167.59a5.5,5.5,0,0,0,.81-3.36l-.46-5.95a14.66,14.66,0,0,0-4.87-9.89,3,3,0,0,0-2-.75h-2.54v-.25a.2.2,0,0,0-.2-.2h-2.49a.2.2,0,0,0-.2.2v.25h-2.57l.09-.38a3.79,3.79,0,0,0-1.63-4,5.07,5.07,0,0,0-3-.83v1.92h0c1.28,0,3,.82,2.72,2.34-.06.32-.13.65-.21,1H127.8V210h15.11a4,4,0,0,0,3.61-2.33h0a9.75,9.75,0,0,0,3.45-7.45V189.27A1.35,1.35,0,0,0,148.62,187.92Z"/></g><g id="Shoe_Left" data-name="Shoe Left"><path class="cls-4" d="M78.51,242A10.74,10.74,0,0,1,82,243a12,12,0,0,0,2.79.59,74.4,74.4,0,0,0,8.79-.28,10,10,0,0,0,6.94-2.93,4.2,4.2,0,0,1-2.19,3.31s-.73.63-1,.38c0,0,.07.38-.59.59,0,0-.59.14-.77-.28,0,0,0,.73-1.19.94,0,0-2,.56-2.2-.21a1.08,1.08,0,0,1-1.15.73s-2,.31-2.09-.35l-.07-.28a1.33,1.33,0,0,1-1.4.7s-2.27-.07-2.37-.84a8.71,8.71,0,0,0-2.34-.14,4.94,4.94,0,0,1-3,.73s-.8,0-.87-.63c0,0-.31.73-1.74.66,0,0-1.85.21-2.06-.8,0,0-.45,1-1,.87,0,0-2.86-1.08-3-1.88a5.88,5.88,0,0,1,.28-2.27C72.3,241.63,78.51,242,78.51,242Z"/><path class="cls-16" d="M93.54,243.33a74.4,74.4,0,0,1-8.79.28A12,12,0,0,1,82,243a10.74,10.74,0,0,0-3.45-1s-6.21-.41-6.84-.38c0,0-1.19-5.41.52-8.37,0,0,.32-.66.77-.63a6.25,6.25,0,0,0,.46,2.23c.67,2.2,3.79,2,3.79,2a3,3,0,0,0,1.78-.6l3.13-2.49c.49-.37,1.26.14,1.26.14a.65.65,0,0,0,.84,0,4.28,4.28,0,0,0,.76-1l.4.3s4.81,3,7,3.63a15.34,15.34,0,0,0,3.8.84s3.63-.28,4.15,1.47a3.47,3.47,0,0,1,.1,1.19A10,10,0,0,1,93.54,243.33Z"/><path class="cls-4" d="M84.22,233.94a.65.65,0,0,1-.84,0s-.77-.51-1.26-.14L79,236.29a3,3,0,0,1-1.78.6s-3.12.2-3.79-2a6.25,6.25,0,0,1-.46-2.23l.14,0a1.06,1.06,0,0,1,.59.37,3.91,3.91,0,0,0,.38,1.83c.93,2,4.3,1,4.3,1a7.76,7.76,0,0,0,1.93-1.41h0c.68-.62,1.23-1.19,1.23-1.19.79-.7,2,.14,2,.14.49,0,.78-.88.78-.88L85,233A4.28,4.28,0,0,1,84.22,233.94Z"/><path class="cls-17" d="M80.31,234.45a7.76,7.76,0,0,1-1.93,1.41s-3.37,1-4.3-1a3.91,3.91,0,0,1-.38-1.83,1.84,1.84,0,0,1,.27.39,1.67,1.67,0,0,0,.39.43,4.62,4.62,0,0,0,2.86.84,4.39,4.39,0,0,0,2.69-.84A1,1,0,0,0,80.31,234.45Z"/><path class="cls-17" d="M83.54,233.4s-1.21-.84-2-.14c0,0-.55.57-1.23,1.19h0a1,1,0,0,1-.41-.57s.1-2.34,1-2.69a2.66,2.66,0,0,1,2.16.49s.58.38,1.24.84C84.32,232.52,84,233.45,83.54,233.4Z"/><path class="cls-18" d="M90.69,238.06a4.28,4.28,0,0,0-1.06-2c-.3-.34.2-.83.49-.49a5,5,0,0,1,1.24,2.28c.08.44-.59.63-.67.19Z"/><path class="cls-18" d="M88.86,236.9a4.28,4.28,0,0,0-1.06-2c-.3-.34.2-.83.49-.49a5,5,0,0,1,1.24,2.28c.08.44-.59.63-.67.19Z"/><path class="cls-18" d="M87,236.08a4.28,4.28,0,0,0-1.06-2c-.3-.34.2-.83.49-.49a5,5,0,0,1,1.24,2.28c.08.44-.59.63-.67.19Z"/></g><g id="Shoe_Right" data-name="Shoe Right"><path class="cls-4" d="M104.13,257.06a10.74,10.74,0,0,1,3.45,1,12,12,0,0,0,2.79.59,74.4,74.4,0,0,0,8.79-.28,10,10,0,0,0,6.94-2.93,4.2,4.2,0,0,1-2.19,3.31s-.73.63-1,.38c0,0,.07.38-.59.59,0,0-.59.14-.77-.28,0,0,0,.73-1.19.94,0,0-2,.56-2.2-.21a1.08,1.08,0,0,1-1.15.73s-2,.31-2.09-.35l-.07-.28a1.33,1.33,0,0,1-1.4.7s-2.27-.07-2.37-.84a8.71,8.71,0,0,0-2.34-.14,4.94,4.94,0,0,1-3,.73s-.8,0-.87-.63c0,0-.31.73-1.74.66,0,0-1.85.21-2.06-.8,0,0-.45,1-1,.87,0,0-2.86-1.08-3-1.88a5.88,5.88,0,0,1,.28-2.27C97.92,256.65,104.13,257.06,104.13,257.06Z"/><path class="cls-16" d="M119.16,258.36a74.4,74.4,0,0,1-8.79.28,12,12,0,0,1-2.79-.59,10.74,10.74,0,0,0-3.45-1s-6.21-.41-6.84-.38c0,0-1.19-5.41.52-8.37,0,0,.32-.66.77-.63a6.25,6.25,0,0,0,.46,2.23c.67,2.2,3.79,2,3.79,2a3,3,0,0,0,1.78-.6l3.13-2.49c.49-.37,1.26.14,1.26.14a.65.65,0,0,0,.84,0,4.28,4.28,0,0,0,.76-1l.4.3s4.81,3,7,3.63a15.34,15.34,0,0,0,3.8.84s3.63-.28,4.15,1.47a3.47,3.47,0,0,1,.1,1.19A10,10,0,0,1,119.16,258.36Z"/><path class="cls-4" d="M109.84,249a.65.65,0,0,1-.84,0s-.77-.51-1.26-.14l-3.13,2.49a3,3,0,0,1-1.78.6s-3.12.2-3.79-2a6.25,6.25,0,0,1-.46-2.23l.14,0a1.06,1.06,0,0,1,.59.37,3.91,3.91,0,0,0,.38,1.83c.93,2,4.3,1,4.3,1a7.76,7.76,0,0,0,1.93-1.41h0c.68-.62,1.23-1.19,1.23-1.19.79-.7,2,.14,2,.14.49,0,.78-.88.78-.88l.66.47A4.28,4.28,0,0,1,109.84,249Z"/><path class="cls-17" d="M105.93,249.48a7.76,7.76,0,0,1-1.93,1.41s-3.37,1-4.3-1a3.91,3.91,0,0,1-.38-1.83,1.84,1.84,0,0,1,.27.39,1.67,1.67,0,0,0,.39.43,4.62,4.62,0,0,0,2.86.84,4.39,4.39,0,0,0,2.69-.84A1,1,0,0,0,105.93,249.48Z"/><path class="cls-17" d="M109.16,248.42s-1.21-.84-2-.14c0,0-.55.57-1.23,1.19h0a1,1,0,0,1-.41-.57s.1-2.34,1-2.69a2.66,2.66,0,0,1,2.16.49s.58.38,1.24.84C109.94,247.54,109.65,248.47,109.16,248.42Z"/><path class="cls-18" d="M116.32,253.08a4.28,4.28,0,0,0-1.06-2c-.3-.34.2-.83.49-.49A5,5,0,0,1,117,252.9c.08.44-.59.63-.67.19Z"/><path class="cls-18" d="M114.48,251.92a4.28,4.28,0,0,0-1.06-2c-.3-.34.2-.83.49-.49a5,5,0,0,1,1.24,2.28c.08.44-.59.63-.67.19Z"/><path class="cls-18" d="M112.66,251.1a4.28,4.28,0,0,0-1.06-2c-.3-.34.2-.83.49-.49a5,5,0,0,1,1.24,2.28c.08.44-.59.63-.67.19Z"/></g><g id="Pullover"><path id="Pullover-2" data-name="Pullover" class="cls-19" d="M126.18,112.6c-4.08-25.83-4.9-42.87-5.07-49.21,0-.4,0-.61,0-.61s0-.84-.05-2.16h0c-.29-4.35-1.9-13.9-10.43-15.5,0,0-9.14,2.88-16.3,2.73v0l-.42,0-.42,0v0c-7.17.15-16.3-2.73-16.3-2.73C66.1,47.2,66.72,62.77,66.72,62.77s0,.9.05,2.4a398.24,398.24,0,0,1-4.64,45c-1.21,6-2.06,12-2.06,12l5.4,1.66c9.35-32.6,11.84-51.09,11.84-51.09s2.09,18.59.92,29.39h31.26c-1.12-10.3.89-28,1.07-29.3.2,1.45,2.86,19.72,11.82,51l5.4-1.66S127.13,117.69,126.18,112.6Z"/><path class="cls-19" d="M93.92,14.1C78.27,14.1,69.52,27.69,72,38.42s21.91,15,21.91,15,19.41-4.3,21.91-15S109.58,14.1,93.92,14.1Z"/><rect class="cls-20" x="78.38" y="99.18" width="31.02" height="2.95"/><polygon class="cls-20" points="127.78 122.17 125.91 110.84 119.22 112.32 122.38 123.83 127.78 122.17"/><polygon class="cls-20" points="60.07 122.16 61.94 110.83 68.62 112.31 65.47 123.82 60.07 122.16"/><path class="cls-20" d="M93.92,18.66c-11.41,0-18,9.39-17,17.4a13.05,13.05,0,0,0,.22,4.49C79,48.79,93.92,52.09,93.92,52.09s14.91-3.3,16.83-11.54a13.07,13.07,0,0,0,.32-4.49C112.06,28.06,105.33,18.66,93.92,18.66Z"/><path id="Shadow-4" data-name="Shadow" class="cls-3" d="M126.37,113.36l-.4-2.41c-3.86-24.91-4.65-41.36-4.81-47.57,0-.4,0-.61,0-.61s0-.84-.05-2.16h0c-.28-4.22-1.81-13.34-9.7-15.33a13.36,13.36,0,0,0,4.46-6.86C118.38,27.69,109.63,14.1,94,14.1h0v88h15.56c0-.28-.06-.57-.08-.85v-2.1h-.15c-.54-10.41,1.13-25.18,1.3-26.34.2,1.44,2.86,19.72,11.82,51l5.4-1.66S127.25,118.12,126.37,113.36Z"/></g><path class="cls-21" d="M118.76,51.45a26.64,26.64,0,0,0-8.2,21.38"/><path class="cls-21" d="M69.05,51.51a26.64,26.64,0,0,1,8.2,21.38"/></g></g></g></g></g></svg>