<svg xmlns="http://www.w3.org/2000/svg" xmlns:xlink="http://www.w3.org/1999/xlink" viewBox="0 0 203.49 273.57"><defs><style>.cls-1{fill:none;}.cls-2{fill:#fb6020;}.cls-3{opacity:0.2;}.cls-4{fill:#f0f4ff;}.cls-5{fill:#c7d2ef;}.cls-6{fill:#ffca85;}.cls-15,.cls-16,.cls-18,.cls-7{fill:#020202;}.cls-10,.cls-7{opacity:0.1;}.cls-8{clip-path:url(#clip-path);}.cls-9{fill:#b9c7ea;}.cls-11{fill:#aabbe5;}.cls-12{fill:#e29c56;}.cls-13{fill:#eaa860;}.cls-14,.cls-16{opacity:0.07;}.cls-17{fill:#fff7ee;}.cls-18{opacity:0.16;}.cls-19{fill:#edac6b;}</style><clipPath id="clip-path"><path class="cls-1" d="M146.93,173c3.84-23.52-9.42-22.75-12-21.56a3.71,3.71,0,0,1-3.72-.26c-1.11-.79-2.08-2.35-1.86-5.39.5-6.66-.67-12.24-6.57-15.38-4.56-2.43-14,2.35-22.86,3.67-11.42-2.23-17.55-4.67-22.11-2.24-5.9,3.14-5.68,7.28-5.18,13.94.23,3-.74,4.59-1.86,5.39a3.71,3.71,0,0,1-3.72.26c-2.55-1.19-14.65-2.12-12,21.56,3.07,27.15-16.6,34-16.6,34a74.86,74.86,0,0,1,18.65,1.82c22.35,5.07,38,5,43.85,4.66,5.81.3,21.5.41,43.85-4.66A74.86,74.86,0,0,1,163.53,207S142.35,201,146.93,173Z"/></clipPath></defs><title>Asset 32</title><g id="Layer_2" data-name="Layer 2"><g id="Icons_mehr" data-name="Icons + mehr"><g id="Screen_5" data-name="Screen 5"><g id="Dress"><rect class="cls-2" width="203.26" height="273.57"/><polygon id="Shadow" class="cls-3" points="43.37 273.57 12.85 210.68 123.21 32.72 156.33 100.98 168.84 100.87 169.41 87.74 203.49 157.98 203.25 273.57 43.37 273.57"/><g id="Dress-2" data-name="Dress"><path class="cls-4" d="M85.88,66.84h14.92V41.11S96.59,30.83,78.71,33l4.5,16.75S85.63,56.22,85.88,66.84Z"/><path class="cls-4" d="M115.71,66.84H100.79V41.11S105,30.83,122.88,33l-4.5,16.75S116,56.22,115.71,66.84Z"/><path class="cls-4" d="M85.88,66.84s-56,33.61-73,143.83c0,0,5.79,3,17.23-1.89,14-6,37.29,4.5,73.44,4.5L100.79,66.84Z"/><path class="cls-4" d="M115.51,66.83s56,33.61,73,143.83c0,0-7.08,3.45-18.38-1.76-15.26-7-38.88,3.82-69.1,4.38l-.47-146.46Z"/><path class="cls-5" d="M21,211.39S17.66,153.51,57.51,95.06c0,0-38.1,50.87-44.67,115.62A19.94,19.94,0,0,0,21,211.39Z"/><polygon class="cls-6" points="115.99 61.94 85.41 61.94 85.88 66.84 115.71 66.84 115.99 61.94"/><polygon class="cls-7" points="115.99 66.84 82.13 69.47 85.88 66.84 115.99 66.84"/><g class="cls-8"><path class="cls-9" d="M146.93,173c3.84-23.52-9.42-22.75-12-21.56a3.71,3.71,0,0,1-3.72-.26c-1.11-.79-2.08-2.35-1.86-5.39.5-6.66-.67-12.24-6.57-15.38-4.56-2.43-14,2.35-22.86,3.67-11.42-2.23-17.55-4.67-22.11-2.24-5.9,3.14-5.68,7.28-5.18,13.94.23,3-.74,4.59-1.86,5.39a3.71,3.71,0,0,1-3.72.26c-2.55-1.19-14.65-2.12-12,21.56,3.07,27.15-16.6,34-16.6,34a74.86,74.86,0,0,1,18.65,1.82c22.35,5.07,38,5,43.85,4.66,5.81.3,21.5.41,43.85-4.66A74.86,74.86,0,0,1,163.53,207S142.35,201,146.93,173Z"/><path class="cls-10" d="M162.06,208.79s-24.88-5.68-17.31-42.61a13.76,13.76,0,0,0-6.94-15l-.45-.23s17.11-5.26,19.44,18.49c0,0,.78,33.29,7.19,35.23Z"/><path class="cls-10" d="M52,186.05s.78,17.08-9.92,24.09l-9.72-4.07Z"/></g><path class="cls-5" d="M100.79,41.11V43s4.42-9.63,17-10.31C117.79,32.72,105.25,32.19,100.79,41.11Z"/><path class="cls-11" d="M100.79,41.67a18.4,18.4,0,0,1,10.62-8.21,15,15,0,0,0-10.62,7.65Z"/><polygon class="cls-12" points="86.52 61.94 87 66.83 85.88 66.84 85.41 61.94 86.52 61.94"/><g class="cls-3"><path d="M116.23,66.83H101.31l.22,67h0l-.5-.1v79.52l.76,0v.08l2.15-.06c6.67.23,21.69,0,42.49-4.72a74.65,74.65,0,0,1,15.31-1.83,26.73,26.73,0,0,1,9.14,2.23c11.3,5.21,18.38,1.76,18.38,1.76C172.2,100.44,116.23,66.83,116.23,66.83Z"/><path d="M118.11,32.42h0a25.28,25.28,0,0,0-6.38.74,14.76,14.76,0,0,0-7,3.26,13.09,13.09,0,0,0-2.76,3,8.25,8.25,0,0,0-.85,1.44V61.64h0V40.81l-.1-.22V66.83h15.29l-.4-.26.41,0H116l.28-4.9,1.11-7.45,1.25-4.63,0-.08,4.5-16.75A39,39,0,0,0,118.11,32.42Z"/></g></g><g id="Shoe_Left" data-name="Shoe Left"><path class="cls-6" d="M85.94,218.16s-.76,1.52.33,1.46S85.94,218.16,85.94,218.16Zm.31,1.13c-.32,0-.18-.65-.18-.65C86.49,219.29,86.24,219.29,86.24,219.29Z"/><path class="cls-13" d="M86.07,218.63a.7.7,0,0,1,.33.48s0,.19-.16.17a.53.53,0,0,0-.2-.47Z"/><path class="cls-13" d="M85.76,218.63a1.33,1.33,0,0,0,0,.63.45.45,0,0,0,.22.26.71.71,0,0,0,.56,0,.67.67,0,0,1-.75-.09S85.54,219.29,85.76,218.63Z"/><g class="cls-14"><path class="cls-15" d="M85.94,218.16a3.15,3.15,0,0,0-.18.48l.49-.13C86.09,218.31,85.94,218.16,85.94,218.16Z"/></g><path class="cls-5" d="M101.62,239.37l-6-2.13a.64.64,0,0,1-.38-.3l-1.36-2.38a.72.72,0,0,0-.53-.36l-2.4-.32,1.2,2.76-3.76-1.56a1.68,1.68,0,0,1-.79-.68l-4.19-6.86a1.68,1.68,0,0,1-.24-.7l-.36-3.44a2,2,0,0,0-.32-.89l-2.81-4.22h6.89a.13.13,0,0,0,.13-.13V217a.13.13,0,0,0-.13-.13H78.71l-2.54,2.63a1.68,1.68,0,0,0-.47,1.17v2.78a1.68,1.68,0,0,0,.49,1.19,5.6,5.6,0,0,1,1.63,3.58l.89,13.08h1.14l.56-12.21,4.43,8.16,1.25,3.11a1.19,1.19,0,0,0,1.16.95h15.13v-.87A1.15,1.15,0,0,0,101.62,239.37Z"/><polygon class="cls-6" points="96.77 235.47 94.85 234.89 94.37 235.48 95.37 237.19 97.25 237.82 97.73 237.23 96.77 235.47"/><polygon class="cls-13" points="96.77 235.47 95.37 237.19 96.36 235.35 96.77 235.47"/><polygon class="cls-13" points="95.48 235.08 95.37 237.19 95.3 235.03 95.48 235.08"/><polygon class="cls-13" points="94.72 235.05 95.37 237.19 94.63 235.16 94.72 235.05"/><polygon class="cls-13" points="97.42 236.65 95.37 237.19 97.5 236.82 97.42 236.65"/><polygon class="cls-13" points="97.6 237.39 95.37 237.19 97.51 237.5 97.6 237.39"/><path class="cls-11" d="M87.18,240.62l-1.43-3.33-5.58-10.05a.11.11,0,0,0-.21.05l-.59,13.33h-.71l0,.71h1.14l.56-12.21,4.43,8.16,1.25,3.11a1.19,1.19,0,0,0,1.16.95h15.13v-.71Z"/><polygon class="cls-11" points="79.65 218.31 79.3 217.78 86.54 218.31 79.65 218.31"/><path class="cls-11" d="M76.19,224.67l.28.23a4.08,4.08,0,0,1,1.47,3.45l-.06.76-.29-2a1.23,1.23,0,0,0-.17-.47Z"/><polygon class="cls-11" points="90.93 233.89 92.66 236.77 92.12 236.65 90.93 233.89"/><polygon class="cls-16" points="97.25 237.82 94.47 237.39 93.11 236.27 94.89 236.38 95.37 237.19 97.25 237.82"/></g><g id="Shoe_Right" data-name="Shoe Right"><path class="cls-6" d="M114.68,218.16s-.76,1.52.33,1.46S114.68,218.16,114.68,218.16Zm.31,1.13c-.32,0-.18-.65-.18-.65C115.23,219.29,115,219.29,115,219.29Z"/><path class="cls-13" d="M114.81,218.63a.7.7,0,0,1,.33.48s0,.19-.16.17a.53.53,0,0,0-.2-.47Z"/><path class="cls-13" d="M114.5,218.63a1.33,1.33,0,0,0,0,.63.45.45,0,0,0,.22.26.71.71,0,0,0,.56,0,.67.67,0,0,1-.75-.09S114.29,219.29,114.5,218.63Z"/><g class="cls-14"><path class="cls-15" d="M114.68,218.16a3.15,3.15,0,0,0-.18.48l.49-.13C114.83,218.31,114.68,218.16,114.68,218.16Z"/></g><path class="cls-5" d="M130.36,239.37l-6-2.13a.64.64,0,0,1-.38-.3l-1.36-2.38a.72.72,0,0,0-.53-.36l-2.4-.32,1.2,2.76-3.76-1.56a1.68,1.68,0,0,1-.79-.68l-4.19-6.86a1.68,1.68,0,0,1-.24-.7l-.36-3.44a2,2,0,0,0-.32-.89l-2.81-4.22h6.89a.13.13,0,0,0,.13-.13V217a.13.13,0,0,0-.13-.13h-7.83l-2.54,2.63a1.68,1.68,0,0,0-.47,1.17v2.78a1.68,1.68,0,0,0,.49,1.19,5.6,5.6,0,0,1,1.63,3.58l.89,13.08h1.14l.56-12.21,4.43,8.16,1.25,3.11a1.19,1.19,0,0,0,1.16.95h15.13v-.87A1.15,1.15,0,0,0,130.36,239.37Z"/><polygon class="cls-6" points="125.51 235.47 123.59 234.89 123.11 235.48 124.12 237.19 126 237.82 126.48 237.23 125.51 235.47"/><polygon class="cls-13" points="125.51 235.47 124.12 237.19 125.11 235.35 125.51 235.47"/><polygon class="cls-13" points="124.22 235.08 124.12 237.19 124.04 235.03 124.22 235.08"/><polygon class="cls-13" points="123.47 235.05 124.12 237.19 123.37 235.16 123.47 235.05"/><polygon class="cls-13" points="126.16 236.65 124.12 237.19 126.25 236.82 126.16 236.65"/><polygon class="cls-13" points="126.35 237.39 124.12 237.19 126.26 237.5 126.35 237.39"/><path class="cls-11" d="M115.93,240.62l-1.43-3.33-5.58-10.05a.11.11,0,0,0-.21.05l-.59,13.33h-.71l0,.71h1.14l.56-12.21,4.43,8.16,1.25,3.11a1.19,1.19,0,0,0,1.16.95h15.13v-.71Z"/><polygon class="cls-11" points="108.4 218.31 108.05 217.78 115.29 218.31 108.4 218.31"/><path class="cls-11" d="M104.94,224.67l.28.23a4.08,4.08,0,0,1,1.47,3.45l-.06.76-.29-2a1.23,1.23,0,0,0-.17-.47Z"/><polygon class="cls-11" points="119.67 233.89 121.41 236.77 120.87 236.65 119.67 233.89"/><polygon class="cls-16" points="126 237.82 123.22 237.39 121.86 236.27 123.64 236.38 124.12 237.19 126 237.82"/></g><g id="Bag"><path class="cls-4" d="M144.84,102.33l-1.21,22.21a1.43,1.43,0,0,0,1.43,1.51h31.51a1.43,1.43,0,0,0,1.42-1.56l-2.07-22.21a1.43,1.43,0,0,0-1.42-1.3H146.26A1.43,1.43,0,0,0,144.84,102.33Z"/><path class="cls-4" d="M160.84,82c-11.84,0-10.72,18.85-10.72,18.85h2.56c.08-4.9.85-16.65,8.16-16.55,7.85.11,7.86,11.53,8,16.55h2.66S172.88,82,160.84,82Z"/><path class="cls-5" d="M145.51,101.09a1.42,1.42,0,0,0-.67,1.13l-1.21,22.21a1.43,1.43,0,0,0,1.43,1.51h31.51a1.42,1.42,0,0,0,1.05-.46H145.84a1.5,1.5,0,0,1-1.5-1.57Z"/><path class="cls-5" d="M168.83,100.44v.43h2.66s0-.15,0-.42Z"/><path class="cls-5" d="M150.13,100.87h2.56c0-.16,0-.33,0-.5h-2.59C150.12,100.69,150.13,100.87,150.13,100.87Z"/><path class="cls-7" d="M152.95,100.87H168a.22.22,0,0,1,.22.22v12.49a.9.9,0,0,1-.9.9H153.62a.9.9,0,0,1-.9-.9V101.09A.22.22,0,0,1,152.95,100.87Z"/><path class="cls-17" d="M153.6,100.65h14.07a.22.22,0,0,1,.22.22v12.41a.9.9,0,0,1-.9.9H154.28a.9.9,0,0,1-.9-.9V100.88A.22.22,0,0,1,153.6,100.65Z"/><path class="cls-4" d="M153.6,100.65h14.07a.22.22,0,0,1,.22.22v12.41a.9.9,0,0,1-.9.9H154.28a.9.9,0,0,1-.9-.9V100.88A.22.22,0,0,1,153.6,100.65Z"/><path class="cls-5" d="M153.91,100.65h-.31a.22.22,0,0,0-.22.22v12.41a.9.9,0,0,0,.9.9H167a.9.9,0,0,0,.86-.67H154.7a.79.79,0,0,1-.79-.79Z"/><path class="cls-18" d="M159.31,113.41H161a.18.18,0,0,1,.18.17l.06,2.33h1.12V113l-.51-.77-2.33,0Z"/><path class="cls-18" d="M159,111.86a.75.75,0,0,0-.72.74v3.73a.43.43,0,0,0,.43.43H162a.55.55,0,0,0,.52-.36l.12-.32h-.75L160,116l-.75-.32-.19-1.48.16-1.82Z"/><path class="cls-6" d="M162.09,111.84h-2.94a.53.53,0,0,0-.53.53V116a.53.53,0,0,0,.53.53h2.94a.53.53,0,0,0,.53-.53v-3.63A.53.53,0,0,0,162.09,111.84Zm-.44,3.6a.18.18,0,0,1-.18.18h-1.68a.18.18,0,0,1-.18-.18v-2.52a.18.18,0,0,1,.18-.18h1.68a.18.18,0,0,1,.18.18Z"/><path class="cls-19" d="M159.78,112.74h1.68a.18.18,0,0,1,.18.18v2.52a.18.18,0,0,1-.18.18h.15a.36.36,0,0,0,.36-.36v-2.39a.43.43,0,0,0-.4-.38H160a.42.42,0,0,0-.43.42h0A.18.18,0,0,1,159.78,112.74Z"/><path class="cls-19" d="M159.39,116.33a.5.5,0,0,1-.5-.5v-3.91a.52.52,0,0,0-.26.45V116a.53.53,0,0,0,.53.53h2.94a.52.52,0,0,0,.4-.19Z"/></g></g></g></g></g></svg>