<svg xmlns="http://www.w3.org/2000/svg" viewBox="0 0 203.26 273.57"><defs><style>.cls-1{isolation:isolate;}.cls-2{fill:#fd9c14;}.cls-3,.cls-9{opacity:0.2;}.cls-4{fill:#d2b190;}.cls-5{fill:#ac7f5e;}.cls-6{fill:#3a3129;}.cls-7{fill:#f7f8fc;}.cls-8{fill:#161b39;}.cls-9{fill:#350201;mix-blend-mode:multiply;}.cls-10{fill:#8e2902;}.cls-11{fill:#b22f08;}.cls-12{fill:#ffccb8;}.cls-13{fill:#db875f;}</style></defs><title>Asset 33</title><g class="cls-1"><g id="Layer_2" data-name="Layer 2"><g id="Icons_mehr" data-name="Icons + mehr"><g id="Screen_5" data-name="Screen 5"><g id="Chic"><rect class="cls-2" width="203.26" height="273.57"/><polygon id="Shadow" class="cls-3" points="84.49 250.36 93.38 241.55 86.63 235.16 87.03 143.19 76.67 137.92 63.72 111.25 86.82 33.82 129.85 33.82 203.25 185.64 203.25 273.57 108.97 273.57 84.49 250.36"/><g id="Trouser"><path class="cls-4" d="M121.63,96.26c-4.89-1.25-14.15-1.28-18.84-1.2C98.11,95,88.84,95,84,96.26c0,0-8.53,20.67-7.75,36.13s10.34,65.76,10.85,102.49c0,0,6.2,4.35,11.63,0l-.52-56s.77-51.11,4.63-51.34c3.85.23,4.63,51.34,4.63,51.34l-.52,56c5.43,4.35,11.63,0,11.63,0,.52-36.74,10.08-87,10.85-102.49S121.63,96.26,121.63,96.26Z"/><path class="cls-5" d="M86.37,224.87s9,1.68,12.48-.56l.2,10.85s-5,5-12.43,0Z"/><path class="cls-5" d="M119.07,224.87s-9,1.68-12.48-.56l-.2,10.85s5,5,12.43,0Z"/><path class="cls-6" d="M102.59,99.24c7.95,0,14.92-1.2,18.89-3-4.92-1.22-14.06-1.24-18.7-1.16C98.11,95,88.84,95,84,96.26l0,.07C87.93,98.08,94.79,99.24,102.59,99.24Z"/><circle class="cls-5" cx="102.71" cy="101.33" r="1.26"/><path class="cls-5" d="M90.85,100.29a.74.74,0,0,1,0,1l-7,7a.74.74,0,0,1-1,0h0a.74.74,0,0,1,0-1l7-7a.74.74,0,0,1,1,0Z"/><path class="cls-5" d="M114.57,100.29a.74.74,0,0,0,0,1l7,7a.74.74,0,0,0,1,0h0a.74.74,0,0,0,0-1l-7-7a.74.74,0,0,0-1,0Z"/></g><g id="Shirt"><path class="cls-7" d="M133.48,86.09c-2.77-5.77-1.85-40.88-1.85-40.88s.69-17.32-11.66-19.63c0,0-10.16,3.21-18.13,3v0l-.46,0-.46,0v0c-8,.17-18.13-3-18.13-3C70.42,27.88,71.12,45.2,71.12,45.2S72,80.31,69.27,86.09s-5.54,25.18-5.54,25.18l6,1.85C80.12,76.85,82.9,56.29,82.9,56.29,88.44,62.76,88,84.47,88,84.47h26.79s-.46-21.71,5.08-28.18c0,0,2.77,20.56,13.17,56.82l6-1.85S136.25,91.86,133.48,86.09Z"/><path class="cls-8" d="M126.13,28.1A11.87,11.87,0,0,0,120,25S109.79,28.19,101.82,28v0l-.46,0-.46,0v0c-8,.17-18.15-3.06-18.15-3.06a11.87,11.87,0,0,0-6.16,3.14Z"/><path class="cls-8" d="M131.34,39.57a26.91,26.91,0,0,0-1.49-5.75H73a26.92,26.92,0,0,0-1.49,5.75Z"/><path class="cls-8" d="M131.59,51c0-2.73.07-4.8.1-5.74H71.14c0,.94.06,3,.1,5.74Z"/><path class="cls-8" d="M131.58,62.47c0-2,0-3.9,0-5.72H120c.15,1,.46,2.94,1,5.72Z"/><path class="cls-8" d="M131.89,73.7c-.09-1.77-.16-3.63-.21-5.51h-9.61c.33,1.67.71,3.51,1.13,5.51Z"/><path class="cls-8" d="M133.31,85a31.7,31.7,0,0,1-.94-5.64h-7.85q.6,2.67,1.3,5.64Z"/><path class="cls-8" d="M127.21,90.7c1.63,6.59,3.6,14.05,6,22.33l6-1.86s-1.77-12.49-3.9-20.47Z"/><path class="cls-8" d="M116.93,62.47a19.87,19.87,0,0,1,2.34-5.72H83.55a19.87,19.87,0,0,1,2.34,5.72Z"/><path class="cls-8" d="M115.18,73.7c.14-1.78.34-3.66.61-5.51H87c.27,1.85.47,3.73.61,5.51Z"/><path class="cls-8" d="M114.87,79.42H88c.09,2.9,0,4.85,0,4.85h26.82S114.78,82.32,114.87,79.42Z"/><path class="cls-8" d="M71.25,62.47H81.84c.5-2.78.8-4.7,1-5.72H71.27C71.27,58.57,71.27,60.5,71.25,62.47Z"/><path class="cls-8" d="M79.62,73.7c.42-2,.8-3.84,1.13-5.51H71.14c-.05,1.88-.12,3.74-.21,5.51Z"/><path class="cls-8" d="M77.07,85.06q.7-3,1.3-5.64H70.53a31.7,31.7,0,0,1-.94,5.64Z"/><path class="cls-8" d="M67.63,90.78c-2.13,8-3.9,20.47-3.9,20.47l6,1.86c2.36-8.28,4.32-15.74,6-22.33Z"/></g><path class="cls-3" d="M133.47,86.09c-2.77-5.77-1.85-40.88-1.85-40.88s.69-17.32-11.66-19.63c0,0-10.16,3.21-18.13,3v0l-.46,0h0V84.47h13.4s-.46-21.71,5.08-28.18c0,0,2.77,20.56,13.17,56.82l6-1.85S136.25,91.86,133.47,86.09Z"/><path class="cls-3" d="M121.63,96.26C116.9,95,108.08,95,103.27,95.05h-.48v32.45h0c3.85.23,4.63,51.34,4.63,51.34L107,224.54a4.52,4.52,0,0,1-.4-.23l-.2,10.85s5,5,12.43,0l.25-10.29-.21,0c1.8-35.34,9.81-78.42,10.52-92.52C130.16,116.93,121.63,96.26,121.63,96.26Z"/><g id="Shoe_Left" data-name="Shoe Left"><path class="cls-8" d="M85.43,240.89a9.16,9.16,0,0,0-.94,9.47A26.91,26.91,0,0,0,94,251.41c6-.23,6,1.87,13.92.94s10.53-1.87,10.41-3.51-13.92-7.37-13.92-7.37a23.43,23.43,0,0,1-11,.08C88.08,240.07,85.43,240.89,85.43,240.89Z"/><path class="cls-3" d="M84.49,250.36A26.91,26.91,0,0,0,94,251.41c6-.23,6,1.87,13.92.94s10.53-1.87,10.41-3.51-13.92-7.37-13.92-7.37l-3.66,2.34s3.66,1.79,3.74,2.18-4.68-1-10.76-1.4-8.26-3.7-8.26-3.7A9.16,9.16,0,0,0,84.49,250.36Z"/><g class="cls-3"><path d="M118.29,248.84a.84.84,0,0,0-.27-.46c-.36,1.36-3.1,2.2-10.23,3-7.85.92-7.85-1.15-13.73-.92a36.1,36.1,0,0,1-9.93-1c.11.28.23.56.37.84A26.91,26.91,0,0,0,94,251.41c6-.23,6,1.87,13.92.94S118.41,250.48,118.29,248.84Z"/></g><path class="cls-7" d="M110.51,244.53s-2.83,2.12-2.51,2.44,6.78,2,8.79,1C116.79,247.92,117.7,247.47,110.51,244.53Z"/></g><g id="Shoe_Right" data-name="Shoe Right"><path class="cls-8" d="M115.8,232.81a9.16,9.16,0,0,0-.94,9.47,26.91,26.91,0,0,0,9.47,1.05c6-.23,6,1.87,13.92.94s10.53-1.87,10.41-3.51-13.92-7.37-13.92-7.37a23.43,23.43,0,0,1-11,.08C118.45,232,115.8,232.81,115.8,232.81Z"/><path class="cls-3" d="M114.87,242.28a26.91,26.91,0,0,0,9.47,1.05c6-.23,6,1.87,13.92.94s10.53-1.87,10.41-3.51-13.92-7.37-13.92-7.37l-3.66,2.34s3.66,1.79,3.74,2.18-4.68-1-10.76-1.4-8.26-3.7-8.26-3.7A9.16,9.16,0,0,0,114.87,242.28Z"/><g class="cls-3"><path d="M148.67,240.76a.84.84,0,0,0-.27-.46c-.36,1.36-3.1,2.2-10.23,3-7.85.92-7.85-1.15-13.73-.92a36.1,36.1,0,0,1-9.93-1c.11.28.23.56.37.84a26.91,26.91,0,0,0,9.47,1.05c6-.23,6,1.87,13.92.94S148.78,242.4,148.67,240.76Z"/></g><path class="cls-7" d="M140.89,236.45s-2.83,2.12-2.51,2.44,6.78,2,8.79,1C147.17,239.84,148.08,239.39,140.89,236.45Z"/></g><g id="Bag"><path class="cls-9" d="M161.93,120h0a2.74,2.74,0,0,0-.48-.3h0v-1.27a2.49,2.49,0,0,0-2.49-2.49H132.08a2.49,2.49,0,0,0-2.49,2.49v1.27h0a2.74,2.74,0,0,0-.48.31h0a2.72,2.72,0,0,0-1,2.13v11.9a2.73,2.73,0,0,0,2.73,2.73h29.43a2.73,2.73,0,0,0,2.73-2.73v-11.9A2.71,2.71,0,0,0,161.93,120Zm-28.83-2.87h24.82a2.3,2.3,0,0,1,2.3,2.27H130.8A2.3,2.3,0,0,1,133.1,117.16Z"/><path class="cls-10" d="M160.36,118.93v-1.27a2.49,2.49,0,0,0-2.49-2.49H131a2.49,2.49,0,0,0-2.49,2.49v1.27a2.73,2.73,0,0,0-1.52,2.44v11.9a2.73,2.73,0,0,0,2.73,2.73h29.43a2.73,2.73,0,0,0,2.73-2.73v-11.9A2.73,2.73,0,0,0,160.36,118.93ZM132,116.38h24.82a2.3,2.3,0,0,1,2.3,2.27H129.71A2.3,2.3,0,0,1,132,116.38Z"/><path class="cls-11" d="M159.14,118.64H129.71a2.72,2.72,0,0,0-1.7.6v7.39a2.57,2.57,0,0,0,2.57,2.57h27.69a2.57,2.57,0,0,0,2.57-2.57v-7.39A2.72,2.72,0,0,0,159.14,118.64Z"/><rect class="cls-12" x="140.71" y="127.32" width="7.43" height="3.69" rx="0.58" ry="0.58"/><rect class="cls-13" x="141.67" y="127.8" width="5.5" height="2.74" rx="0.43" ry="0.43"/></g></g></g></g></g></g></svg>