<svg xmlns="http://www.w3.org/2000/svg" viewBox="0 0 193.44 193.44"><defs><style>.cls-1{fill:#8c466c;}.cls-2{fill:#b8823a;}.cls-3{fill:#f1b183;}.cls-4{fill:#ba8238;}.cls-27,.cls-5{opacity:0.2;}.cls-6{fill:#493335;}.cls-7{fill:#e291c6;}.cls-8{fill:#d6878f;}.cls-9{fill:#e6e6e6;}.cls-10{fill:#31242e;}.cls-11{fill:#ffd9b5;}.cls-12{fill:#d2dbfa;}.cls-13{fill:#2b1f29;}.cls-14{fill:#e7f0ff;}.cls-15{fill:#32252f;}.cls-16{fill:#fafafa;}.cls-17{fill:#bf7955;}.cls-18,.cls-27{fill:#101d26;}.cls-19{fill:#c68897;}.cls-20{fill:#debb77;}.cls-21{fill:#bc8b6d;}.cls-22{fill:#fb9f4e;}.cls-23{fill:#e06a58;}.cls-24{fill:#fff;}.cls-25{fill:#787880;}.cls-26{fill:#363845;}.cls-28{fill:#65ddff;}.cls-29{fill:#9f717e;}.cls-30{fill:#ff7877;}.cls-31{fill:#8c3874;}.cls-32{fill:#373946;}.cls-33{fill:#9c7878;}.cls-34{fill:#483636;}.cls-35{fill:#ef1a31;}.cls-36{fill:#505052;}.cls-37{fill:#7d7e80;}.cls-38{fill:#4f4d52;}</style></defs><title>Asset 36</title><g id="Layer_2" data-name="Layer 2"><g id="Icons_mehr" data-name="Icons + mehr"><g id="Screen_7" data-name="Screen 7"><rect class="cls-1" width="193.44" height="193.44"/><g id="Make_up_Bag_large" data-name="Make up Bag large"><rect class="cls-2" x="48.64" y="98.08" width="20.76" height="11.09" transform="translate(-17.55 12.2) rotate(-10.29)"/><polygon class="cls-3" points="50.02 54.01 35.24 56.69 48.96 99.81 58.03 98.17 67.11 96.52 64.8 51.32 50.02 54.01"/><polygon class="cls-4" points="64.96 54.35 64.8 51.32 50.02 54.01 35.24 56.69 36.16 59.58 64.96 54.35"/><polygon class="cls-5" points="59.14 109 58.99 109.27 70.24 107.22 68.26 96.31 67.12 96.52 64.82 51.32 50.03 54.01 48.75 54.24 59.14 109"/><rect class="cls-5" x="120.74" y="75.57" width="32.3" height="26.96" rx="2.14" ry="2.14" transform="translate(-26.25 96.42) rotate(-35.63)"/><rect class="cls-6" x="117.73" y="74.6" width="32.3" height="26.96" rx="2.14" ry="2.14" transform="translate(-26.25 94.48) rotate(-35.63)"/><rect class="cls-7" x="121.74" y="79.74" width="14.95" height="23.36" rx="1.35" ry="1.35" transform="translate(-29.07 92.39) rotate(-35.63)"/><rect class="cls-8" x="135.32" y="71.73" width="10.15" height="23.36" rx="1.11" ry="1.11" transform="translate(-22.31 97.4) rotate(-35.63)"/><g class="cls-5"><path d="M138.74,68.56a2.13,2.13,0,0,0-.8.12Z"/><path d="M153.61,87.89,140.39,69.45a2.13,2.13,0,0,0-1.66-.89l-10.25,39a2.13,2.13,0,0,0,1.85-.31l22.78-16.33A2.14,2.14,0,0,0,153.61,87.89Z"/></g><rect class="cls-5" x="130.29" y="66.24" width="13.08" height="16.02" rx="1.33" ry="1.33" transform="translate(6.93 160.04) rotate(-61.93)"/><rect class="cls-9" x="129.67" y="64.96" width="13.08" height="16.02" rx="1.33" ry="1.33" transform="translate(7.73 158.82) rotate(-61.93)"/><path class="cls-5" d="M145.14,70.36l-11.78-6.28a1.33,1.33,0,0,0-1.21,0L140,82a1.33,1.33,0,0,0,.78-.65l4.9-9.19A1.33,1.33,0,0,0,145.14,70.36Z"/><path class="cls-5" d="M115.11,79.1a18.31,18.31,0,0,0-19.67-12.2l-.5-1.44a18.3,18.3,0,1,0-7,2.22l.56,1.62a18.31,18.31,0,1,0,26.61,9.82Z"/><circle class="cls-10" cx="95.48" cy="83.2" r="18.3" transform="translate(-21.86 35.56) rotate(-18.97)"/><circle class="cls-11" cx="95.48" cy="83.2" r="14.83" transform="translate(-21.86 35.56) rotate(-18.97)"/><circle class="cls-10" cx="83.71" cy="47.61" r="18.3" transform="translate(-10.93 29.8) rotate(-18.97)"/><circle class="cls-12" cx="83.71" cy="47.61" r="14.83" transform="translate(-10.93 29.8) rotate(-18.97)"/><rect class="cls-13" x="85.55" y="62.87" width="7.34" height="4.27" transform="translate(-16.29 32.54) rotate(-18.97)"/><path class="cls-14" d="M84.09,62.2,95.82,39.49q-.19-.32-.38-.64L83.35,62.25Z"/><path class="cls-14" d="M81.24,62.21,94.18,37.15A15.15,15.15,0,0,0,93,35.93L79.56,62A15.18,15.18,0,0,0,81.24,62.21Z"/><path class="cls-5" d="M112.79,77.25A18.31,18.31,0,0,0,93.12,65l-.5-1.44A18.3,18.3,0,0,0,79,29.95l22.48,70.57A18.3,18.3,0,0,0,112.79,77.25Z"/><path class="cls-5" d="M79.63,118,71.84,88.77l.09,0L69.79,67.29,62,69.35l-3.34.89L62,69.35l7-1.87s6.2-13.66,1.28-20.14-10-7.42-15.68-5.66C48.88,43,44.92,46.33,43.88,54.39S55,71.23,55,71.23l-.72.19L63.1,91.1l4.41-1.18,3.21-.85-7.53,2L71,120.31s2.48,7.12,6.26,6.11S79.63,118,79.63,118Z"/><path class="cls-15" d="M60.2,90.55,68,119.79s2.48,7.12,6.26,6.11,2.39-8.41,2.39-8.41L68.86,88.25Z"/><polygon class="cls-16" points="59.05 68.83 51.3 70.9 60.12 90.58 64.53 89.4 68.94 88.23 66.8 66.77 59.05 68.83"/><path class="cls-17" d="M67.36,46.82c-4.92-6.48-10-7.42-15.68-5.66-5.79,1.29-9.75,4.64-10.79,12.71S52,70.71,52,70.71l7-1.87,7-1.87S72.28,53.3,67.36,46.82Z"/><path class="cls-5" d="M64.51,89.4l9.72,36.5c3.78-1,2.39-8.41,2.39-8.41L68.84,88.25l.09,0L66.79,66.77l-.72.19s6.2-13.66,1.28-20.14-10-7.42-15.68-5.66L64.51,89.4h0"/><rect class="cls-5" x="76.34" y="76.31" width="65.23" height="17.34" rx="4.24" ry="4.24" transform="translate(-22.27 128.24) rotate(-56.2)"/><rect class="cls-18" x="75.97" y="74.23" width="65.23" height="17.34" rx="4.24" ry="4.24" transform="translate(-20.71 127.01) rotate(-56.2)"/><circle class="cls-19" cx="121.67" cy="61.66" r="4.3" transform="translate(2.75 128.46) rotate(-56.2)"/><circle class="cls-20" cx="107.8" cy="82.38" r="4.3" transform="translate(-20.62 126.13) rotate(-56.2)"/><circle class="cls-21" cx="114.74" cy="72.02" r="4.3" transform="translate(-8.94 127.3) rotate(-56.2)"/><circle class="cls-22" cx="101.06" cy="92.44" r="4.3" transform="translate(-31.98 125) rotate(-56.2)"/><circle class="cls-23" cx="94.13" cy="102.8" r="4.3" transform="translate(-43.66 123.83) rotate(-56.2)"/><ellipse class="cls-24" cx="124.7" cy="69.92" rx="1.51" ry="1.16" transform="matrix(0.56, -0.83, 0.83, 0.56, -2.77, 134.65)"/><path class="cls-25" d="M120.54,75.34l.37.25.37.25c2.58-3.93,3.95-4.81,3.95-4.81l-.87-.58-.87-.58S123.19,71.46,120.54,75.34Z"/><ellipse class="cls-24" cx="117.11" cy="81.26" rx="1.51" ry="1.16" transform="translate(-15.56 133.37) rotate(-56.2)"/><path class="cls-25" d="M120.54,75.34l.37.25.37.25c-2.65,3.89-2.94,5.48-2.94,5.48l-.87-.58-.87-.58S118,79.28,120.54,75.34Z"/><ellipse class="cls-24" cx="110.77" cy="90.73" rx="1.51" ry="1.16" transform="translate(-26.25 132.31) rotate(-56.2)"/><path class="cls-25" d="M106.61,96.15l.37.25.37.25c2.58-3.93,3.95-4.81,3.95-4.81l-.87-.58-.87-.58S109.26,92.27,106.61,96.15Z"/><ellipse class="cls-24" cx="103.18" cy="102.07" rx="1.51" ry="1.16" transform="translate(-39.04 131.03) rotate(-56.2)"/><path class="cls-25" d="M106.61,96.15l.37.25.37.25c-2.65,3.89-2.94,5.48-2.94,5.48l-.87-.58-.87-.58S104,100.08,106.61,96.15Z"/><path class="cls-5" d="M125.63,60A4.28,4.28,0,0,0,124,58l-4.71,7.2A4.3,4.3,0,0,0,125.63,60Z"/><path class="cls-5" d="M118.77,70.39a4.28,4.28,0,0,0-1.66-2l-4.71,7.2a4.3,4.3,0,0,0,6.37-5.24Z"/><path class="cls-5" d="M111.74,80.7a4.28,4.28,0,0,0-1.66-2l-4.71,7.2a4.3,4.3,0,0,0,6.37-5.24Z"/><path class="cls-5" d="M105,90.77a4.28,4.28,0,0,0-1.66-2L98.66,96A4.3,4.3,0,0,0,105,90.77Z"/><path class="cls-5" d="M98.09,101.12a4.28,4.28,0,0,0-1.66-2l-4.71,7.2a4.3,4.3,0,0,0,6.37-5.24Z"/><path class="cls-5" d="M111.61,89.48l-9.27,13.85a1.37,1.37,0,0,0,1.8-.61,1.89,1.89,0,0,0,.26-.58h0s.29-1.59,2.94-5.48,3.95-4.81,3.95-4.81h0a1.89,1.89,0,0,0,.44-.46A1.37,1.37,0,0,0,111.61,89.48Z"/><path class="cls-5" d="M125.54,68.71l-9.27,13.85a1.37,1.37,0,0,0,1.8-.61,1.89,1.89,0,0,0,.26-.58h0s.29-1.59,2.94-5.48,3.95-4.81,3.95-4.81h0a1.89,1.89,0,0,0,.44-.46A1.37,1.37,0,0,0,125.54,68.71Z"/><g class="cls-5"><path class="cls-18" d="M52.87,94.16c-2.4,4.67-5.37,10-5.37,10s-.51.72.43,1.23,1.26-.32,1.26-.32,2.82-5.46,5.37-10,8.05-10.73,8.05-10.73a10.62,10.62,0,0,0-5.3-2.83S55.27,89.49,52.87,94.16Z"/><rect class="cls-18" x="61.39" y="76.5" width="0.44" height="6.79" transform="translate(78.29 179.39) rotate(-151.88)"/><path class="cls-18" d="M63,76.81l.34.18c-.15-.17.37-1.1.37-1.1h0S63.25,76.84,63,76.81Z"/><path class="cls-18" d="M58.17,86.47c-.09-5.25,0-11.39,0-11.39s.11-.88-1-.88-1,.88-1,.88.09,6.14,0,11.39-2,13.26-2,13.26a10.62,10.62,0,0,0,6,0S58.26,91.72,58.17,86.47Z"/><path class="cls-18" d="M54.21,99.73a5.44,5.44,0,0,0-1,2.36c-.16,1.29-.31,7.63-.31,7.63s1.78.16,4.29.16V99.73Z"/><path class="cls-18" d="M60.22,99.73a5.44,5.44,0,0,1,1,2.36c.16,1.29.31,7.63.31,7.63s-1.78.16-4.29.16V99.73Z"/></g><path class="cls-26" d="M60.67,101.28a5.44,5.44,0,0,0-1-2.36h-6a5.44,5.44,0,0,0-1,2.36c-.16,1.29-.31,7.63-.31,7.63s1.78.16,4.29.16,4.29-.16,4.29-.16S60.83,102.57,60.67,101.28Z"/><path class="cls-26" d="M57.65,85.66c-.09-5.25,0-11.39,0-11.39s.11-.88-1-.88-1,.88-1,.88.09,6.14,0,11.39-2,13.26-2,13.26a10.62,10.62,0,0,0,6,0S57.74,90.92,57.65,85.66Z"/><path class="cls-26" d="M63.22,75.09h0s-.49.94-.71.92l.17.09-.19-.1-3.2,6,.39.21,3.2-6h0C62.71,76,63.22,75.09,63.22,75.09Z"/><path class="cls-26" d="M52.35,93.36C50,98,47,103.4,47,103.4s-.51.72.43,1.23,1.26-.32,1.26-.32,2.82-5.46,5.37-10,8.05-10.73,8.05-10.73a10.62,10.62,0,0,0-5.3-2.83S54.75,88.68,52.35,93.36Z"/><g class="cls-5"><polygon class="cls-18" points="63.17 75.1 63.17 75.1 63.17 75.1 63.17 75.1"/></g><path class="cls-27" d="M62.81,76.2c-.12-.14.23-.85.34-1L47.36,104.64c.94.5,1.26-.32,1.26-.32s2.82-5.46,5.37-10S62,83.53,62,83.53a11,11,0,0,0-2.23-1.69l3-5.64Z"/><path class="cls-27" d="M60.68,101.28a5.44,5.44,0,0,0-1-2.36s-2-8-2-13.26,0-11.39,0-11.39.11-.88-1-.88v35.68c2.51,0,4.29-.16,4.29-.16S60.84,102.57,60.68,101.28Z"/><g class="cls-5"><path class="cls-18" d="M91.33,77.6V76.46a.33.33,0,0,0,.17-.33h0a.33.33,0,0,0-.17-.24v-2a.33.33,0,0,0,.17-.33.33.33,0,0,0-.17-.24V71.41a.33.33,0,0,0,.17-.33h0a.33.33,0,0,0-.17-.24v-.78H83.57v1.66a.33.33,0,0,0,0,.65v1.79a.33.33,0,0,0,0,.65v2a.33.33,0,0,0-.28.37h0a.33.33,0,0,0,.28.28v.19H81.85v48.24H92.79V77.6Z"/><polygon class="cls-18" points="78.19 59.13 78.22 58.46 78.67 58.48 78.69 58.04 78.24 58.02 78.28 57.23 78.73 57.25 78.75 56.81 78.3 56.78 78.34 56.05 78.79 56.07 78.81 55.63 78.36 55.61 78.39 54.87 78.85 54.89 78.87 54.45 78.42 54.43 78.45 53.69 78.91 53.72 78.93 53.27 78.47 53.25 78.5 52.74 78.95 52.76 78.98 52.32 78.52 52.29 78.55 51.78 79 51.8 79.03 51.36 78.57 51.34 78.61 50.6 79.06 50.63 79.08 50.18 78.63 50.16 78.66 49.43 79.12 49.45 79.14 49.01 78.69 48.98 78.72 48.25 79.11 48.27 79.13 47.82 78.74 47.8 78.74 47.8 76.82 47.71 76.82 47.71 76.44 47.69 76.42 48.13 76.8 48.15 76.77 48.89 76.45 48.87 76.43 49.32 76.74 49.33 76.71 50.07 76.39 50.05 76.37 50.49 76.69 50.51 76.65 51.24 76.34 51.23 76.31 51.67 76.63 51.69 76.6 52.2 76.29 52.18 76.27 52.63 76.58 52.64 76.55 53.16 76.24 53.14 76.22 53.58 76.53 53.6 76.5 54.33 76.18 54.32 76.16 54.76 76.47 54.78 76.44 55.51 76.13 55.49 76.1 55.94 76.42 55.95 76.38 56.69 76.07 56.67 76.05 57.12 76.36 57.13 76.32 57.92 76.01 57.91 75.98 58.35 76.3 58.37 76.26 59.03 74.68 91.03 74.79 91.03 70.17 90.8 68.91 116.3 79.85 116.84 81.11 91.34 76.6 91.12 78.19 59.13"/></g><rect class="cls-28" x="80.32" y="75.83" width="10.95" height="48.24"/><rect class="cls-29" x="82.04" y="68.28" width="7.77" height="7.6"/><line class="cls-30" x1="81.76" y1="75.36" x2="89.97" y2="74.36"/><rect class="cls-18" x="81.73" y="74.52" width="8.27" height="0.67" rx="0.33" ry="0.33" transform="translate(-8.39 10.89) rotate(-6.92)"/><rect class="cls-18" x="81.73" y="71.92" width="8.27" height="0.67" rx="0.33" ry="0.33" transform="translate(-8.08 10.87) rotate(-6.92)"/><rect class="cls-18" x="81.73" y="69.47" width="8.27" height="0.67" rx="0.33" ry="0.33" transform="translate(-7.78 10.85) rotate(-6.92)"/><rect class="cls-28" x="68.01" y="89.29" width="10.95" height="25.52" transform="translate(5.13 -3.51) rotate(2.83)"/><polygon class="cls-29" points="75.7 57.31 74.74 57.26 73.16 89.25 74.12 89.3 75.08 89.35 76.66 57.35 75.7 57.31"/><rect class="cls-18" x="75.02" y="45.98" width="1.92" height="11.33" transform="translate(2.64 -3.69) rotate(2.83)"/><rect class="cls-18" x="75.59" y="55.08" width="0.44" height="2.69" transform="translate(15.72 129.36) rotate(-87.17)"/><rect class="cls-18" x="75.65" y="53.84" width="0.44" height="2.69" transform="translate(17 128.25) rotate(-87.17)"/><rect class="cls-18" x="75.71" y="52.67" width="0.44" height="2.69" transform="translate(18.24 127.18) rotate(-87.17)"/><rect class="cls-18" x="75.77" y="51.49" width="0.44" height="2.69" transform="translate(19.47 126.12) rotate(-87.17)"/><rect class="cls-18" x="75.83" y="50.31" width="0.44" height="2.69" transform="translate(20.7 125.06) rotate(-87.17)"/><rect class="cls-18" x="75.88" y="49.36" width="0.44" height="2.69" transform="translate(21.7 124.2) rotate(-87.17)"/><rect class="cls-18" x="75.92" y="48.4" width="0.44" height="2.69" transform="translate(22.7 123.34) rotate(-87.17)"/><rect class="cls-18" x="75.98" y="47.22" width="0.44" height="2.69" transform="translate(23.93 122.28) rotate(-87.17)"/><rect class="cls-18" x="76.04" y="46.04" width="0.44" height="2.69" transform="translate(25.16 121.22) rotate(-87.17)"/><rect class="cls-18" x="76.03" y="44.86" width="0.44" height="2.69" transform="translate(26.33 120.08) rotate(-87.17)"/><polygon class="cls-5" points="75.06 89.35 76.65 57.35 76.68 56.69 77.13 56.71 77.16 56.27 76.7 56.25 76.74 55.46 77.19 55.48 77.22 55.04 76.76 55.01 76.8 54.28 77.25 54.3 77.28 53.86 76.82 53.84 76.86 53.1 77.31 53.12 77.33 52.68 76.88 52.66 76.91 51.92 77.37 51.95 77.39 51.5 76.94 51.48 76.96 50.97 77.42 50.99 77.44 50.55 76.98 50.52 77.01 50.01 77.46 50.03 77.49 49.59 77.03 49.57 77.07 48.84 77.52 48.86 77.54 48.41 77.09 48.39 77.13 47.66 77.58 47.68 77.6 47.24 77.15 47.21 77.18 46.48 77.57 46.5 77.59 46.05 76.52 46 72.67 114.79 78.31 115.07 79.57 89.57 75.06 89.35"/><path class="cls-5" d="M89.81,75.81V74.67a.33.33,0,0,0,.17-.33.33.33,0,0,0-.17-.24v-2a.33.33,0,0,0,.17-.33.33.33,0,0,0-.17-.24V69.62a.33.33,0,0,0,.17-.33.33.33,0,0,0-.17-.24v-.78H85.92V124h5.35V75.81Z"/><path class="cls-5" d="M136.12,99.1s2.1-12.58.5-14.18l-1.51-.29-1.51-.29c-2.08.89-4.83,13.34-4.83,13.34a2.14,2.14,0,0,0-2.5,1.69l-1.69,8.72a2.14,2.14,0,0,0,1.69,2.5l7.34,1.42a2.14,2.14,0,0,0,2.5-1.69l1.69-8.72A2.14,2.14,0,0,0,136.12,99.1Z"/><rect class="cls-31" x="123.6" y="96.83" width="11.75" height="13.15" rx="2.14" ry="2.14" transform="translate(22.02 -22.73) rotate(10.96)"/><path class="cls-32" d="M134.89,83.48l-1.51-.29-1.51-.29c-2.08.89-4.83,13.34-4.83,13.34l3.67.71,3.67.71S136.48,85.08,134.89,83.48Z"/><path class="cls-5" d="M134.38,97.66s2.1-12.58.5-14.18l-1.41-.27-5.16,26.67,3.57.69a2.14,2.14,0,0,0,2.5-1.69l1.69-8.72A2.14,2.14,0,0,0,134.38,97.66Z"/><path class="cls-5" d="M121.84,100.36v-.67a.76.76,0,0,0-.51-.71V87.52h-.87v-9.9a3,3,0,1,0-6.07,0v9.9h-.87V98.94a.76.76,0,0,0-.7.75v.67a.8.8,0,0,0-.5.74v11.28a.8.8,0,0,0,.8.8h8.41a.8.8,0,0,0,.8-.8V101.1A.8.8,0,0,0,121.84,100.36Z"/><rect class="cls-33" x="111.25" y="96.75" width="9.01" height="12.88" rx="0.76" ry="0.76"/><rect class="cls-34" x="110.75" y="98.12" width="10.01" height="12.88" rx="0.8" ry="0.8"/><rect class="cls-34" x="111.95" y="85.34" width="7.8" height="11.78"/><path class="cls-35" d="M115.85,72.41a3,3,0,0,0-3,3v9.9h6.07v-9.9A3,3,0,0,0,115.85,72.41Z"/><path class="cls-5" d="M120.28,98.18v-.67a.76.76,0,0,0-.51-.71V85.34h-.87v-9.9a3,3,0,0,0-3-3h0V111H120a.8.8,0,0,0,.8-.8V98.92A.8.8,0,0,0,120.28,98.18Z"/><g class="cls-5"><path d="M149.93,118.6a5.34,5.34,0,0,0-5.33-5H62.76a5.34,5.34,0,0,0-5.33,5L54.08,166a5.34,5.34,0,0,0,5.34,5.34h88.53a5.34,5.34,0,0,0,5.34-5.34Z"/><rect x="63.45" y="113.05" width="82.76" height="1.18"/><rect x="143.29" y="113.29" width="1.94" height="0.71"/><rect x="139.62" y="113.29" width="1.94" height="0.71"/><rect x="136.6" y="113.29" width="1.94" height="0.71"/><rect x="132.93" y="113.29" width="1.94" height="0.71"/><rect x="129.81" y="113.29" width="1.94" height="0.71"/><rect x="126.14" y="113.29" width="1.94" height="0.71"/><rect x="123.12" y="113.29" width="1.94" height="0.71"/><rect x="119.45" y="113.29" width="1.94" height="0.71"/><rect x="116.05" y="113.29" width="1.94" height="0.71"/><rect x="112.38" y="113.29" width="1.94" height="0.71"/><rect x="109.36" y="113.29" width="1.94" height="0.71"/><rect x="105.69" y="113.29" width="1.94" height="0.71"/><rect x="102.56" y="113.29" width="1.94" height="0.71"/><rect x="98.89" y="113.29" width="1.94" height="0.71"/><rect x="95.87" y="113.29" width="1.94" height="0.71"/><rect x="92.2" y="113.29" width="1.94" height="0.71"/><rect x="88.73" y="113.29" width="1.94" height="0.71"/><rect x="85.71" y="113.29" width="1.94" height="0.71"/><rect x="82.04" y="113.29" width="1.94" height="0.71"/><rect x="78.92" y="113.29" width="1.94" height="0.71"/><rect x="75.25" y="113.29" width="1.94" height="0.71"/><rect x="72.23" y="113.29" width="1.94" height="0.71"/><rect x="68.56" y="113.29" width="1.94" height="0.71"/><circle cx="62.62" cy="113.29" r="1.82"/><path d="M51.94,114l-.13,0h-.05a3.67,3.67,0,1,0,2.5,6.85h0s3.56-1.15,8-7.32C62.25,113.6,54.14,113.63,51.94,114Zm.8,5.08a1.4,1.4,0,1,1,1.4-1.4A1.4,1.4,0,0,1,52.74,119.11Z"/></g><path class="cls-30" d="M140.53,109.08a5.34,5.34,0,0,0-5.33-5H53.36a5.34,5.34,0,0,0-5.33,5l-3.36,47.36A5.34,5.34,0,0,0,50,161.78h88.53a5.34,5.34,0,0,0,5.34-5.34Z"/><rect class="cls-36" x="54.05" y="103.52" width="82.76" height="1.18"/><rect class="cls-37" x="133.88" y="103.76" width="1.94" height="0.71"/><rect class="cls-37" x="130.21" y="103.76" width="1.94" height="0.71"/><rect class="cls-37" x="127.19" y="103.76" width="1.94" height="0.71"/><rect class="cls-37" x="123.52" y="103.76" width="1.94" height="0.71"/><rect class="cls-37" x="120.4" y="103.76" width="1.94" height="0.71"/><rect class="cls-37" x="116.73" y="103.76" width="1.94" height="0.71"/><rect class="cls-37" x="113.71" y="103.76" width="1.94" height="0.71"/><rect class="cls-37" x="110.04" y="103.76" width="1.94" height="0.71"/><rect class="cls-37" x="106.64" y="103.76" width="1.94" height="0.71"/><rect class="cls-37" x="102.97" y="103.76" width="1.94" height="0.71"/><rect class="cls-37" x="99.95" y="103.76" width="1.94" height="0.71"/><rect class="cls-37" x="96.28" y="103.76" width="1.94" height="0.71"/><rect class="cls-37" x="93.16" y="103.76" width="1.94" height="0.71"/><rect class="cls-37" x="89.49" y="103.76" width="1.94" height="0.71"/><rect class="cls-37" x="86.47" y="103.76" width="1.94" height="0.71"/><rect class="cls-37" x="82.8" y="103.76" width="1.94" height="0.71"/><rect class="cls-37" x="79.33" y="103.76" width="1.94" height="0.71"/><rect class="cls-37" x="76.31" y="103.76" width="1.94" height="0.71"/><rect class="cls-37" x="72.64" y="103.76" width="1.94" height="0.71"/><rect class="cls-37" x="69.52" y="103.76" width="1.94" height="0.71"/><rect class="cls-37" x="65.85" y="103.76" width="1.94" height="0.71"/><rect class="cls-37" x="62.83" y="103.76" width="1.94" height="0.71"/><rect class="cls-37" x="59.15" y="103.76" width="1.94" height="0.71"/><circle class="cls-38" cx="53.21" cy="103.76" r="1.82"/><path class="cls-38" d="M42.53,104.5l-.13,0h-.05a3.67,3.67,0,1,0,2.5,6.85h0s3.56-1.15,8-7.32C52.85,104.07,44.74,104.1,42.53,104.5Zm.8,5.08a1.4,1.4,0,1,1,1.4-1.4A1.4,1.4,0,0,1,43.34,109.58Z"/><path class="cls-5" d="M140.53,109.08a5.32,5.32,0,0,0-3.72-4.69v-.86H91.71v58.25h46.84a5.34,5.34,0,0,0,5.34-5.34Z"/></g></g></g></g></svg>