<svg xmlns="http://www.w3.org/2000/svg" viewBox="0 0 193.44 193.44"><defs><style>.cls-1{fill:#88145c;}.cls-2{opacity:0.2;}.cls-3{fill:#b8823a;}.cls-4{fill:#f1b183;}.cls-5{fill:#ba8238;}.cls-6{fill:#493335;}.cls-7{fill:#e291c6;}.cls-8{fill:#d6878f;}.cls-9{fill:#e6e6e6;}.cls-10{fill:#31242e;}.cls-11{fill:#ffd9b5;}.cls-12{fill:#d2dbfa;}.cls-13{fill:#2b1f29;}.cls-14{fill:#e7f0ff;}.cls-15{fill:#101d26;}.cls-16{fill:#65ddff;}.cls-17{fill:#9f717e;}.cls-18{fill:#ff7877;}.cls-19{fill:#505052;}.cls-20{fill:#7d7e80;}.cls-21{fill:#4f4d52;}</style></defs><title>Asset 35</title><g id="Layer_2" data-name="Layer 2"><g id="Icons_mehr" data-name="Icons + mehr"><g id="Screen_7" data-name="Screen 7"><rect class="cls-1" width="193.44" height="193.44"/><g id="Make_up_Bag_medium" data-name="Make up Bag medium"><g class="cls-2"><rect x="56.84" y="94.21" width="22.57" height="12.06" transform="translate(-16.8 13.78) rotate(-10.29)"/><polygon points="58.34 46.31 42.27 49.23 57.19 96.1 67.05 94.31 76.91 92.52 74.41 43.39 58.34 46.31"/><polygon points="74.57 46.69 74.41 43.39 58.34 46.31 42.27 49.23 43.27 52.37 74.57 46.69"/><polygon class="cls-2" points="68.25 106.08 68.09 106.37 80.32 104.16 78.17 92.29 76.92 92.52 74.42 43.39 58.35 46.31 56.96 46.56 68.25 106.08"/></g><rect class="cls-3" x="54.2" y="93.23" width="22.57" height="12.06" transform="translate(-16.67 13.29) rotate(-10.29)"/><polygon class="cls-4" points="55.7 45.33 39.63 48.25 54.55 95.12 64.41 93.33 74.28 91.54 71.77 42.42 55.7 45.33"/><polygon class="cls-5" points="71.94 45.71 71.77 42.42 55.7 45.33 39.63 48.25 40.63 51.39 71.94 45.71"/><polygon class="cls-2" points="65.61 105.11 65.46 105.4 77.68 103.18 75.53 91.31 74.29 91.54 71.79 42.42 55.72 45.33 54.33 45.58 65.61 105.11"/><rect class="cls-2" x="119.28" y="70.17" width="35.11" height="29.31" rx="2.32" ry="2.32" transform="translate(-23.8 95.6) rotate(-35.63)"/><rect class="cls-6" x="116.01" y="69.11" width="35.11" height="29.31" rx="2.32" ry="2.32" transform="translate(-23.79 93.49) rotate(-35.63)"/><rect class="cls-7" x="120.37" y="74.71" width="16.25" height="25.39" rx="1.47" ry="1.47" transform="translate(-26.86 91.22) rotate(-35.63)"/><rect class="cls-8" x="135.13" y="66" width="11.03" height="25.39" rx="1.21" ry="1.21" transform="translate(-19.51 96.67) rotate(-35.63)"/><g class="cls-2"><path d="M138.84,62.55a2.31,2.31,0,0,0-.87.13Z"/><path d="M155,83.56l-14.37-20a2.32,2.32,0,0,0-1.8-1l-11.14,42.34a2.32,2.32,0,0,0,2-.34L154.48,86.8A2.32,2.32,0,0,0,155,83.56Z"/></g><rect class="cls-2" x="129.66" y="60.03" width="14.22" height="17.41" rx="1.45" ry="1.45" transform="translate(11.76 157.07) rotate(-61.93)"/><rect class="cls-9" x="128.99" y="58.63" width="14.22" height="17.41" rx="1.45" ry="1.45" transform="translate(12.64 155.74) rotate(-61.93)"/><path class="cls-2" d="M145.81,64.51,133,57.68a1.45,1.45,0,0,0-1.32,0l8.54,19.5a1.45,1.45,0,0,0,.85-.7l5.33-10A1.45,1.45,0,0,0,145.81,64.51Z"/><path class="cls-2" d="M131.61,84.34a19.9,19.9,0,0,0-21.38-13.26l-.54-1.57a19.89,19.89,0,1,0-7.61,2.41l.6,1.76a19.9,19.9,0,1,0,28.93,10.67Z"/><circle class="cls-10" cx="110.27" cy="88.8" r="19.9" transform="translate(-22.88 40.68) rotate(-18.97)"/><circle class="cls-11" cx="110.27" cy="88.8" r="16.12" transform="translate(-22.88 40.68) rotate(-18.97)"/><circle class="cls-10" cx="97.49" cy="50.12" r="19.9" transform="matrix(0.95, -0.33, 0.33, 0.95, -11, 34.42)"/><circle class="cls-12" cx="97.49" cy="50.12" r="16.12" transform="translate(-11 34.42) rotate(-18.97)"/><rect class="cls-13" x="99.48" y="66.7" width="7.98" height="4.64" transform="translate(-16.82 37.39) rotate(-18.97)"/><path class="cls-14" d="M97.9,66l12.74-24.68q-.2-.35-.42-.69L97.09,66Z"/><path class="cls-14" d="M94.8,66l14.06-27.23a16.47,16.47,0,0,0-1.27-1.33L93,65.72A16.5,16.5,0,0,0,94.8,66Z"/><path class="cls-2" d="M129.09,82.33a19.9,19.9,0,0,0-21.38-13.26l-.54-1.57A19.89,19.89,0,0,0,92.31,30.92l24.43,76.7A19.9,19.9,0,0,0,129.09,82.33Z"/><g class="cls-2"><path class="cls-15" d="M96.89,73.39V72.15a.36.36,0,0,0,.18-.36h0a.36.36,0,0,0-.18-.26V69.31a.36.36,0,0,0,.18-.36.36.36,0,0,0-.18-.26v-2a.36.36,0,0,0,.18-.36h0a.36.36,0,0,0-.18-.26v-.85H88.45V67a.36.36,0,0,0,0,.71v1.95a.36.36,0,0,0,0,.71v2.13a.36.36,0,0,0-.3.4h0a.36.36,0,0,0,.3.31v.21H86.58v52.43h11.9V73.39Z"/><polygon class="cls-15" points="82.6 53.31 82.64 52.58 83.13 52.61 83.16 52.13 82.66 52.1 82.7 51.24 83.2 51.27 83.22 50.79 82.73 50.76 82.77 49.96 83.26 49.99 83.29 49.51 82.79 49.48 82.83 48.68 83.33 48.71 83.35 48.23 82.86 48.2 82.89 47.4 83.39 47.43 83.41 46.95 82.92 46.92 82.95 46.37 83.44 46.39 83.46 45.91 82.97 45.88 83 45.33 83.49 45.35 83.52 44.87 83.02 44.84 83.06 44.05 83.56 44.07 83.58 43.59 83.08 43.56 83.12 42.77 83.62 42.79 83.64 42.31 83.15 42.28 83.19 41.48 83.6 41.51 83.63 41.02 83.21 41 83.21 41 81.12 40.9 81.12 40.9 80.71 40.88 80.68 41.36 81.1 41.38 81.06 42.18 80.72 42.16 80.7 42.65 81.04 42.66 81 43.46 80.66 43.44 80.63 43.92 80.97 43.94 80.93 44.74 80.59 44.72 80.57 45.2 80.91 45.22 80.88 45.78 80.54 45.76 80.52 46.24 80.86 46.26 80.83 46.82 80.49 46.8 80.47 47.28 80.81 47.3 80.77 48.1 80.43 48.08 80.4 48.56 80.74 48.58 80.7 49.38 80.36 49.36 80.34 49.84 80.68 49.86 80.64 50.66 80.3 50.64 80.28 51.12 80.62 51.14 80.57 52 80.23 51.98 80.21 52.46 80.55 52.48 80.51 53.2 78.79 87.98 78.91 87.99 73.89 87.74 72.52 115.45 84.41 116.04 85.78 88.33 80.88 88.08 82.6 53.31"/></g><rect class="cls-16" x="84.92" y="71.46" width="11.9" height="52.43"/><rect class="cls-17" x="86.79" y="63.26" width="8.44" height="8.26"/><line class="cls-18" x1="86.49" y1="70.95" x2="95.42" y2="69.86"/><rect class="cls-15" x="86.46" y="70.04" width="8.99" height="0.72" rx="0.36" ry="0.36" transform="translate(-7.82 11.47) rotate(-6.92)"/><rect class="cls-15" x="86.46" y="67.21" width="8.99" height="0.72" rx="0.36" ry="0.36" transform="translate(-7.48 11.45) rotate(-6.92)"/><rect class="cls-15" x="86.46" y="64.56" width="8.99" height="0.72" rx="0.36" ry="0.36" transform="translate(-7.16 11.43) rotate(-6.92)"/><rect class="cls-16" x="71.54" y="86.09" width="11.9" height="27.74" transform="translate(5.03 -3.71) rotate(2.83)"/><polygon class="cls-17" points="79.9 51.33 78.86 51.28 77.14 86.06 78.18 86.11 79.22 86.16 80.94 51.38 79.9 51.33"/><rect class="cls-15" x="79.16" y="39.02" width="2.09" height="12.32" transform="translate(2.33 -3.91) rotate(2.83)"/><rect class="cls-15" x="79.78" y="48.91" width="0.48" height="2.93" transform="translate(25.76 127.81) rotate(-87.17)"/><rect class="cls-15" x="79.85" y="47.57" width="0.48" height="2.93" transform="translate(27.17 126.6) rotate(-87.17)"/><rect class="cls-15" x="79.91" y="46.29" width="0.48" height="2.93" transform="translate(28.5 125.45) rotate(-87.17)"/><rect class="cls-15" x="79.98" y="45.01" width="0.48" height="2.93" transform="translate(29.84 124.29) rotate(-87.17)"/><rect class="cls-15" x="80.04" y="43.73" width="0.48" height="2.93" transform="translate(31.18 123.14) rotate(-87.17)"/><rect class="cls-15" x="80.09" y="42.69" width="0.48" height="2.93" transform="translate(32.27 122.2) rotate(-87.17)"/><rect class="cls-15" x="80.14" y="41.65" width="0.48" height="2.93" transform="translate(33.36 121.27) rotate(-87.17)"/><rect class="cls-15" x="80.21" y="40.37" width="0.48" height="2.93" transform="translate(34.69 120.11) rotate(-87.17)"/><rect class="cls-15" x="80.27" y="39.09" width="0.48" height="2.93" transform="translate(36.03 118.96) rotate(-87.17)"/><rect class="cls-15" x="80.26" y="37.8" width="0.48" height="2.93" transform="translate(37.3 117.73) rotate(-87.17)"/><polygon class="cls-2" points="79.21 86.16 80.93 51.38 80.97 50.66 81.46 50.69 81.48 50.2 80.99 50.18 81.03 49.32 81.53 49.34 81.55 48.86 81.06 48.84 81.09 48.04 81.59 48.06 81.61 47.58 81.12 47.56 81.16 46.76 81.65 46.78 81.68 46.3 81.18 46.28 81.22 45.48 81.72 45.51 81.74 45.02 81.25 45 81.27 44.44 81.77 44.47 81.79 43.98 81.3 43.96 81.32 43.4 81.82 43.43 81.84 42.95 81.35 42.92 81.39 42.12 81.88 42.15 81.91 41.66 81.41 41.64 81.45 40.84 81.94 40.87 81.97 40.38 81.47 40.36 81.51 39.56 81.93 39.58 81.95 39.1 80.8 39.04 76.6 113.81 82.74 114.11 84.11 86.4 79.21 86.16"/><path class="cls-2" d="M95.24,71.44V70.2a.36.36,0,0,0,.18-.36.36.36,0,0,0-.18-.26V67.36a.36.36,0,0,0,.18-.36.36.36,0,0,0-.18-.26v-2a.36.36,0,0,0,.18-.36.36.36,0,0,0-.18-.26v-.85H91v60.63h5.81V71.44Z"/><g class="cls-2"><path d="M157.18,112.94a5.8,5.8,0,0,0-5.79-5.39h-89a5.8,5.8,0,0,0-5.79,5.39L53,164.42a5.8,5.8,0,0,0,5.8,5.8H155a5.8,5.8,0,0,0,5.8-5.8Z"/><rect x="63.19" y="106.9" width="89.96" height="1.29"/><rect x="149.96" y="107.16" width="2.11" height="0.77"/><rect x="145.97" y="107.16" width="2.11" height="0.77"/><rect x="142.69" y="107.16" width="2.11" height="0.77"/><rect x="138.7" y="107.16" width="2.11" height="0.77"/><rect x="135.31" y="107.16" width="2.11" height="0.77"/><rect x="131.32" y="107.16" width="2.11" height="0.77"/><rect x="128.04" y="107.16" width="2.11" height="0.77"/><rect x="124.05" y="107.16" width="2.11" height="0.77"/><rect x="120.35" y="107.16" width="2.11" height="0.77"/><rect x="116.36" y="107.16" width="2.11" height="0.77"/><rect x="113.08" y="107.16" width="2.11" height="0.77"/><rect x="109.09" y="107.16" width="2.11" height="0.77"/><rect x="105.7" y="107.16" width="2.11" height="0.77"/><rect x="101.71" y="107.16" width="2.11" height="0.77"/><rect x="98.43" y="107.16" width="2.11" height="0.77"/><rect x="94.44" y="107.16" width="2.11" height="0.77"/><rect x="90.67" y="107.16" width="2.11" height="0.77"/><rect x="87.38" y="107.16" width="2.11" height="0.77"/><rect x="83.39" y="107.16" width="2.11" height="0.77"/><rect x="80" y="107.16" width="2.11" height="0.77"/><rect x="76.01" y="107.16" width="2.11" height="0.77"/><rect x="72.73" y="107.16" width="2.11" height="0.77"/><rect x="68.74" y="107.16" width="2.11" height="0.77"/><circle cx="62.28" cy="107.16" r="1.97"/><path d="M50.67,108l-.14,0h-.06a4,4,0,1,0,2.71,7.44h0s3.87-1.25,8.7-8C61.88,107.5,53.07,107.53,50.67,108Zm.87,5.52A1.52,1.52,0,1,1,53.07,112,1.52,1.52,0,0,1,51.55,113.49Z"/></g><path class="cls-18" d="M148.48,105.19a5.8,5.8,0,0,0-5.79-5.39h-89a5.8,5.8,0,0,0-5.79,5.39L44.3,156.67a5.8,5.8,0,0,0,5.8,5.8h96.23a5.8,5.8,0,0,0,5.8-5.8Z"/><rect class="cls-19" x="54.48" y="99.15" width="89.96" height="1.29"/><rect class="cls-20" x="141.26" y="99.41" width="2.11" height="0.77"/><rect class="cls-20" x="137.27" y="99.41" width="2.11" height="0.77"/><rect class="cls-20" x="133.99" y="99.41" width="2.11" height="0.77"/><rect class="cls-20" x="130" y="99.41" width="2.11" height="0.77"/><rect class="cls-20" x="126.61" y="99.41" width="2.11" height="0.77"/><rect class="cls-20" x="122.62" y="99.41" width="2.11" height="0.77"/><rect class="cls-20" x="119.33" y="99.41" width="2.11" height="0.77"/><rect class="cls-20" x="115.34" y="99.41" width="2.11" height="0.77"/><rect class="cls-20" x="111.65" y="99.41" width="2.11" height="0.77"/><rect class="cls-20" x="107.66" y="99.41" width="2.11" height="0.77"/><rect class="cls-20" x="104.38" y="99.41" width="2.11" height="0.77"/><rect class="cls-20" x="100.39" y="99.41" width="2.11" height="0.77"/><rect class="cls-20" x="97" y="99.41" width="2.11" height="0.77"/><rect class="cls-20" x="93.01" y="99.41" width="2.11" height="0.77"/><rect class="cls-20" x="89.72" y="99.41" width="2.11" height="0.77"/><rect class="cls-20" x="85.73" y="99.41" width="2.11" height="0.77"/><rect class="cls-20" x="81.96" y="99.41" width="2.11" height="0.77"/><rect class="cls-20" x="78.68" y="99.41" width="2.11" height="0.77"/><rect class="cls-20" x="74.69" y="99.41" width="2.11" height="0.77"/><rect class="cls-20" x="71.3" y="99.41" width="2.11" height="0.77"/><rect class="cls-20" x="67.31" y="99.41" width="2.11" height="0.77"/><rect class="cls-20" x="64.03" y="99.41" width="2.11" height="0.77"/><rect class="cls-20" x="60.04" y="99.41" width="2.11" height="0.77"/><circle class="cls-21" cx="53.58" cy="99.41" r="1.97"/><path class="cls-21" d="M42,100.22l-.14,0h-.06a4,4,0,1,0,2.71,7.44h0s3.87-1.25,8.7-8C53.18,99.75,44.36,99.79,42,100.22Zm.87,5.52a1.52,1.52,0,1,1,1.52-1.52A1.52,1.52,0,0,1,42.84,105.74Z"/><path class="cls-2" d="M148.48,105.19a5.79,5.79,0,0,0-4-5.1v-.94H95.1v63.32h51.23a5.8,5.8,0,0,0,5.8-5.8Z"/></g></g></g></g></svg>