<svg xmlns="http://www.w3.org/2000/svg" viewBox="0 0 140.48 140.48"><defs><style>.cls-1{fill:#3e6874;}.cls-2{opacity:0.2;}.cls-3{fill:#df2259;}.cls-4{fill:#ee5294;}.cls-5{fill:#b2345b;}.cls-6{fill:#cc3171;}.cls-7{fill:#ed3e74;}.cls-8{fill:#ad305e;}.cls-9{fill:#d14377;}.cls-10{fill:#991b41;}.cls-11{fill:#d52758;}.cls-12{fill:#ac1d45;}.cls-13{fill:#cc3766;}.cls-14{fill:#881840;}.cls-15{fill:#cf3e73;}.cls-16{fill:#c02457;}.cls-17{fill:#962f5a;}.cls-18{fill:#b23662;}.cls-19{fill:#962a4c;}.cls-20{fill:#b23065;}.cls-21{fill:#9d1d50;}.cls-22{fill:#b73765;}.cls-23{fill:#ba245c;}.cls-24{fill:#f75791;}.cls-25{fill:#c8235a;}.cls-26{fill:none;stroke:#fff;stroke-miterlimit:10;stroke-width:0.04px;}.cls-27{fill:#f290bb;}.cls-28{fill:#db3e78;}.cls-29{fill:#f9f1cd;}.cls-30{fill:#fff;}</style></defs><title>Asset 19</title><g id="Layer_2" data-name="Layer 2"><g id="Icons_mehr" data-name="Icons + mehr"><g id="Screen_1" data-name="Screen 1"><g id="Mistress"><rect id="Background" class="cls-1" width="140.48" height="140.48" rx="3.58" ry="3.58"/><polygon id="Shadow" class="cls-2" points="137.07 75.31 137.07 75.32 114.47 28.75 105.97 32.39 107.82 36.21 103.72 42.67 105.6 46.53 100.69 53.42 102.74 57.65 95.85 63.46 99.15 70.31 90.41 72.75 92.4 76.88 59.94 79.48 56.74 69.59 37.19 29.07 28.76 32.71 30.93 37.18 28.68 43.75 31.15 48.83 31.39 54.69 35.09 62.31 34.9 63.45 69.78 135.34 69.77 135.36 72.23 140.43 140.48 140.43 140.48 82.34 137.07 75.31"/><g id="Heart_Neckl." data-name="Heart Neckl."><g id="Heart"><polyline class="cls-3" points="70.7 78.87 76.34 82.05 73.4 72.49 70.14 78.51"/><polygon class="cls-4" points="73.4 72.49 79.02 69.5 81.16 73.88 73.4 72.49"/><polyline class="cls-5" points="73.57 72.44 81.23 73.87 76.28 81.99 73.4 72.49"/><polygon class="cls-6" points="76.43 82.09 77.09 89.35 70.17 78.34 76.43 82.09"/><polygon class="cls-7" points="77.09 89.35 86.67 82.42 76.28 81.99 77.09 89.35"/><polygon class="cls-8" points="76.28 81.99 81.36 78.89 86.6 82.44 76.28 81.99"/><polygon class="cls-9" points="81.23 73.87 81.48 79.02 76.28 81.99 81.23 73.87"/><polygon class="cls-7" points="79.02 69.5 83.74 68.85 81.16 73.88 79.02 69.5"/><polyline class="cls-10" points="83.91 68.85 88.33 71.23 81.16 73.88 83.74 68.85"/><polygon class="cls-11" points="88.33 71.23 88.03 78.82 81.16 73.88 88.33 71.23"/><polygon class="cls-12" points="81.23 73.87 88.11 78.85 86.6 82.44 81.23 73.87"/><polygon class="cls-13" points="81.23 73.87 81.37 78.94 86.64 82.51 81.23 73.87"/><polygon class="cls-14" points="88.11 78.85 92.92 86.42 93.69 81.49 88.11 78.85"/><polygon class="cls-15" points="88.03 78.82 93.69 81.49 93.09 77.08 88.03 78.82"/><polygon class="cls-16" points="88.33 71.23 93.09 77.08 88 78.88 88.33 71.23"/><polygon class="cls-17" points="88.11 78.85 86.6 82.44 92.92 86.42 88.11 78.85"/><polygon class="cls-18" points="86.6 82.44 86.35 88.8 92.92 86.42 86.6 82.44"/><polyline class="cls-19" points="86.42 82.66 80.58 91.77 86.5 88.83 86.6 82.44"/><polygon class="cls-13" points="86.6 82.44 76.95 89.45 80.58 91.77 86.6 82.44"/><polygon class="cls-13" points="76.6 88.98 76.63 98.4 80.62 96.81 76.6 88.98"/><polygon class="cls-20" points="80.62 96.81 80.67 91.7 79.97 91.31 76.6 88.98 80.62 96.81"/><polygon class="cls-21" points="80.67 91.7 80.62 96.81 85.47 97.85 80.67 91.7"/><polygon class="cls-22" points="80.67 91.7 86.42 88.8 85.47 97.85 80.67 91.7"/><polygon class="cls-17" points="86.29 88.74 92.92 86.42 90.41 91.53 86.29 88.74"/><polygon class="cls-19" points="86.44 88.74 90.41 91.53 85.47 97.85 86.44 88.74"/><polyline class="cls-14" points="80.62 96.81 85.47 97.85 80.03 102.84 80.67 96.98 80.03 102.84 76.74 98.34"/><polygon class="cls-18" points="76.77 98.28 73.17 103.42 80.03 102.84 76.77 98.28"/><polyline class="cls-17" points="73.14 103.28 75.3 106.89 80.11 102.83 73.4 103.28"/><polygon class="cls-19" points="66.17 104.38 70.03 111.09 75.3 106.89 66.17 104.38"/><polygon class="cls-14" points="66.04 104.39 73.14 103.28 75.3 106.89 66.04 104.39"/><polygon class="cls-23" points="66.17 104.38 71.69 97.28 73.22 103.28 66.17 104.38"/><polygon class="cls-6" points="71.58 97.24 76.77 98.28 73.22 103.34 71.58 97.24"/><polygon class="cls-11" points="71.52 97.31 76.6 88.98 76.69 98.31 71.52 97.31"/><polyline class="cls-22" points="62.77 104.56 66.17 104.38 70.07 111.09 61.71 104.68"/><polygon class="cls-12" points="63.15 100.34 61.84 104.73 66.17 104.38 63.15 100.34"/><polygon class="cls-13" points="63.18 100.49 71.69 97.28 66.17 104.38 63.18 100.49"/><polygon class="cls-17" points="58.9 102.09 63.13 100.51 61.84 104.77 58.9 102.09"/><polygon class="cls-20" points="59.55 95.21 58.9 102.09 63.18 100.49 59.55 95.21"/><polygon class="cls-24" points="58.85 89.29 63.18 100.49 59.55 95.21 58.85 89.29"/><polygon class="cls-7" points="58.85 89.29 66.85 93.36 63.18 100.49 58.85 89.29"/><polygon class="cls-17" points="66.85 93.24 71.69 97.28 63.18 100.49 66.85 93.24"/><polygon class="cls-7" points="66.78 93.31 69.76 84.69 71.58 97.24 66.78 93.31"/><polygon class="cls-15" points="69.76 84.78 76.6 88.98 71.55 97.39 69.76 84.78"/><polygon class="cls-25" points="70.03 77.86 69.76 84.78 77.09 89.35 70.03 77.86"/><polygon class="cls-5" points="58.88 89.2 53.66 96.55 59.55 95.21 58.88 89.2"/><polygon class="cls-19" points="53.66 96.55 59.58 95.15 58.9 102.09 53.66 96.55"/><polygon class="cls-15" points="53.55 90.27 58.85 89.29 53.66 96.55 53.55 90.27"/><polygon class="cls-18" points="53.89 85.57 53.71 90.36 58.85 89.29 53.89 85.57"/><polyline class="cls-9" points="57.47 83.18 64.83 83.55 58.86 89.37 53.81 85.51 57.47 83.18 58.77 89.15"/><polygon class="cls-13" points="64.83 83.55 65.89 88.49 58.86 89.37 64.83 83.55"/><polyline class="cls-3" points="65.89 88.49 58.97 89.35 66.78 93.31 66.07 89.09"/><polygon class="cls-13" points="65.89 88.49 69.76 84.69 66.78 93.31 65.89 88.49"/><polygon class="cls-14" points="53.69 90.22 53.66 96.55 48.43 88.85 53.69 90.22"/><polygon class="cls-17" points="53.78 90.27 47.08 83.09 48.43 88.85 53.78 90.27"/><polygon class="cls-16" points="47.08 83.18 52.85 77.28 53.97 85.6 47.08 83.18"/><polygon class="cls-4" points="47.17 83.18 53.94 85.5 53.69 90.22 47.17 83.18"/><polygon class="cls-12" points="52.88 77.38 57.34 83.26 53.94 85.5 52.88 77.38"/><polygon class="cls-19" points="52.85 77.28 47.95 75.78 47.08 83.18 52.85 77.28"/><polygon class="cls-16" points="47.95 75.78 51.89 70.93 52.85 77.28 47.95 75.78"/><polygon class="cls-4" points="51.89 70.93 58.25 68.94 52.88 77.38 51.89 70.93"/><path class="cls-26" d="M53.1,77.51"/><polygon class="cls-16" points="58.25 68.94 61.63 69.59 59.03 75.3 58.25 68.94"/><polyline class="cls-27" points="52.88 77.38 58.25 68.94 59.03 75.3 53.1 77.51"/><polygon class="cls-28" points="61.63 69.59 66.39 72.19 59.03 75.3 61.63 69.59"/><polygon class="cls-12" points="66.39 72.19 70.19 78.17 63.92 78.2 66.39 72.19"/><polygon class="cls-16" points="59.03 75.3 66.39 72.19 63.92 78.2 59.03 75.3"/><polygon class="cls-13" points="52.85 77.47 59.03 75.3 57.34 83.26 52.85 77.47"/><polygon class="cls-9" points="59.03 75.3 63.92 78.2 57.34 83.26 59.03 75.3"/><polygon class="cls-6" points="63.92 78.2 70.17 78.14 69.83 84.81 63.92 78.2"/><polyline class="cls-4" points="63.93 78.76 64.88 83.85 69.76 84.69 63.92 78.2"/><path class="cls-26" d="M63.79,78.85"/><polygon class="cls-18" points="64.85 83.74 69.76 84.69 65.89 88.49 64.85 83.74"/><polyline class="cls-13" points="58.22 82.6 63.92 78.2 64.88 83.8 57.47 83.18"/></g><g id="Perls"><g id="Perl"><circle class="cls-29" cx="94.59" cy="70.91" r="4.56"/><circle class="cls-30" cx="95.85" cy="68.61" r="0.93"/><circle class="cls-30" cx="96.88" cy="69.75" r="0.43"/></g><g id="Perl-2" data-name="Perl"><circle class="cls-29" cx="47.32" cy="69.31" r="4.56"/><circle class="cls-30" cx="48.58" cy="67.02" r="0.93"/><circle class="cls-30" cx="49.61" cy="68.16" r="0.43"/></g><g id="Perl-3" data-name="Perl"><circle class="cls-29" cx="38.95" cy="61.35" r="4.56"/><circle class="cls-30" cx="40.21" cy="59.05" r="0.93"/><circle class="cls-30" cx="41.24" cy="60.19" r="0.43"/></g><g id="Perl-4" data-name="Perl"><circle class="cls-29" cx="34.82" cy="51.59" r="4.56"/><circle class="cls-30" cx="36.08" cy="49.29" r="0.93"/><circle class="cls-30" cx="37.11" cy="50.43" r="0.43"/></g><g id="Perl-5" data-name="Perl"><circle class="cls-29" cx="32.63" cy="41.42" r="4.56"/><circle class="cls-30" cx="33.88" cy="39.12" r="0.93"/><circle class="cls-30" cx="34.91" cy="40.27" r="0.43"/></g><g id="Perl-6" data-name="Perl"><circle class="cls-29" cx="32.96" cy="30.84" r="4.56"/><circle class="cls-30" cx="34.21" cy="28.55" r="0.93"/><circle class="cls-30" cx="35.24" cy="29.69" r="0.43"/></g><g id="Perl-7" data-name="Perl"><circle class="cls-29" cx="99.75" cy="61.07" r="4.56"/><circle class="cls-30" cx="101" cy="58.77" r="0.93"/><circle class="cls-30" cx="102.03" cy="59.91" r="0.43"/></g><g id="Perl-8" data-name="Perl"><circle class="cls-29" cx="104.64" cy="51.01" r="4.56"/><circle class="cls-30" cx="105.9" cy="48.71" r="0.93"/><circle class="cls-30" cx="106.93" cy="49.86" r="0.43"/></g><g id="Perl-9" data-name="Perl"><circle class="cls-29" cx="107.81" cy="40.7" r="4.56"/><circle class="cls-30" cx="109.06" cy="38.4" r="0.93"/><circle class="cls-30" cx="110.09" cy="39.54" r="0.43"/></g><g id="Perl-10" data-name="Perl"><circle class="cls-29" cx="110.09" cy="30.32" r="4.56"/><circle class="cls-30" cx="111.35" cy="28.03" r="0.93"/><circle class="cls-30" cx="112.38" cy="29.17" r="0.43"/></g></g></g></g></g></g></g></svg>