<svg xmlns="http://www.w3.org/2000/svg" viewBox="0 0 170.03 169.95"><defs><style>.cls-1,.cls-28{fill:#4f94a4;}.cls-2{fill:#0895ee;}.cls-3,.cls-35{fill:#80dada;}.cls-34,.cls-4{fill:#43a2a8;}.cls-11,.cls-16,.cls-17,.cls-18,.cls-19,.cls-20,.cls-21,.cls-22,.cls-23,.cls-24,.cls-25,.cls-26,.cls-27,.cls-28,.cls-29,.cls-30,.cls-31,.cls-32,.cls-33,.cls-34,.cls-35,.cls-36,.cls-37,.cls-38,.cls-39,.cls-40,.cls-41,.cls-5{stroke:#fff;}.cls-10,.cls-11,.cls-16,.cls-17,.cls-18,.cls-19,.cls-20,.cls-21,.cls-22,.cls-23,.cls-24,.cls-25,.cls-26,.cls-27,.cls-28,.cls-29,.cls-30,.cls-31,.cls-32,.cls-33,.cls-34,.cls-35,.cls-36,.cls-37,.cls-38,.cls-39,.cls-40,.cls-41,.cls-5,.cls-9{stroke-miterlimit:10;}.cls-5{stroke-width:0.05px;}.cls-11,.cls-39,.cls-5,.cls-6{opacity:0.2;}.cls-7{fill:#ee2c2d;}.cls-33,.cls-8{fill:#fff;}.cls-9{fill:#fdb139;stroke:#f5d520;stroke-width:0.58px;}.cls-10,.cls-40,.cls-41{fill:none;}.cls-10{stroke:#231f20;stroke-width:0.87px;}.cls-11{stroke-width:0.05px;}.cls-12{fill:#cbcfd5;}.cls-13{fill:#fd9c14;}.cls-14{fill:#233a3f;}.cls-15{fill:#3e6874;}.cls-16,.cls-17,.cls-18,.cls-19,.cls-20,.cls-21,.cls-22,.cls-23,.cls-24,.cls-25,.cls-26,.cls-27,.cls-28,.cls-29,.cls-30,.cls-31,.cls-32,.cls-33,.cls-34,.cls-35,.cls-36,.cls-37,.cls-38,.cls-39{stroke-width:0.13px;}.cls-17{fill:#6ad4d2;}.cls-18{fill:#608f99;}.cls-19{fill:#86d1d7;}.cls-20{fill:#70b0ba;}.cls-21{fill:#7ad2db;}.cls-22{fill:#84d0d0;}.cls-23{fill:#49c7c6;}.cls-24{fill:#71aaa4;}.cls-25{fill:#e5ebeb;}.cls-26{fill:#7edad9;}.cls-27{fill:#62c3c9;}.cls-29{fill:#caedf1;}.cls-30{fill:#a6d7d3;}.cls-31{fill:#7fa2a6;}.cls-32{fill:#0f3bb7;}.cls-36{fill:#62b1b5;}.cls-37{fill:#509b9e;}.cls-38{fill:#e2fafa;}.cls-40{stroke-width:1.07px;}.cls-41{stroke-width:0.89px;}</style></defs><title>Asset 30</title><g id="Layer_2" data-name="Layer 2"><g id="Icons_mehr" data-name="Icons + mehr"><g id="Screen_4" data-name="Screen 4"><g id="Disco"><rect class="cls-1" x="84.98" width="84.98" height="84.98"/><rect class="cls-2" y="0.2" width="84.98" height="84.98"/><rect class="cls-3" x="84.98" y="84.98" width="84.98" height="84.98"/><rect class="cls-4" y="84.98" width="84.98" height="84.98"/><g id="Party"><g id="Cocktail"><polygon class="cls-5" points="151.91 23.76 170 42.15 169.95 84.97 144.25 84.97 121.75 62.1 130.61 62.1 129.97 49.01 113.68 32.45 119.89 26.17 122.25 28.56 141.85 28.56 144.47 25.94 151.91 23.76"/><polygon id="Shadow" class="cls-6" points="130.43 28.95 130.43 45.54 143.64 28.95 130.43 28.95"/><polygon id="Drink" class="cls-7" points="120.15 32.08 130.6 45.2 130.6 45.2 141.06 32.08 120.15 32.08"/><polygon id="Drink_Shadow" data-name="Drink Shadow" class="cls-6" points="130.43 32.08 130.43 45.2 130.43 45.2 140.88 32.08 130.43 32.08"/><path id="Glass" class="cls-8" d="M139.46,61.44h0v-.58s-4.09.05-8.27.08v-15L145,28.55H116.19L130,45.92v15c-6.81,0-8,0-8.15-.07l-.13,1.22c.14,0,.32,0,5,0h3.88c4.38,0,8.81-.08,8.86-.08v-.58Zm3.15-31.73-12,15.07-12-15.07Z"/><path id="Orange" class="cls-9" d="M115.82,28.35h4.33a4.34,4.34,0,1,0-1.64,3.39Z"/><polyline id="Straw" class="cls-10" points="131.68 39.97 144.36 25.84 152.01 24.19"/><path id="Glas_Shadow" data-name="Glas Shadow" class="cls-6" d="M139.45,60.86s-4.09.05-8.27.08v-15L145,28.55H130.43v1.16h12.18l-12,15.07-.18-.22V62.1h.18c4.38,0,8.81-.08,8.86-.08V60.86Z"/></g><g id="Speakers"><polygon class="cls-11" points="110.52 154.85 125.26 169.84 169.95 169.84 169.95 117.2 150.31 97.23 110.52 154.85"/><rect id="Body" class="cls-12" x="110" y="96.57" width="40.84" height="59" rx="2.13" ry="2.13"/><g id="Big"><circle class="cls-13" cx="130.43" cy="137.22" r="12.98"/><circle class="cls-14" cx="130.43" cy="137.22" r="5.68"/></g><g id="Small"><circle class="cls-15" cx="130.43" cy="110.94" r="9.01"/><circle class="cls-14" cx="130.43" cy="110.94" r="2.62"/></g><path id="Shadow-2" data-name="Shadow" class="cls-6" d="M148.72,96.57H130.43v59h18.29a2.13,2.13,0,0,0,2.13-2.13V98.7A2.13,2.13,0,0,0,148.72,96.57Z"/></g><g id="Discoball"><polygon class="cls-6" points="55.85 25.34 22.12 60.67 46.14 85.09 84.97 85.09 84.97 54.95 55.85 25.34"/><circle class="cls-16" cx="39.3" cy="43.06" r="24.52"/><path class="cls-17" d="M45.61,19.36c.06.78.18,2.27.32,4.28a52.69,52.69,0,0,1,10,1.39A24.48,24.48,0,0,0,45.61,19.36Z"/><path class="cls-18" d="M32.82,19.4c-.06.78-.16,2.43-.3,4.44A60.07,60.07,0,0,0,22.71,25,23.79,23.79,0,0,1,32.82,19.4Z"/><path class="cls-19" d="M32.52,23.83a96.08,96.08,0,0,1,13.41-.19c-.11-1.71-.22-3.16-.3-4.26a24.5,24.5,0,0,0-4.72-.78h0l-.71,0H38.27l-.49,0-.26,0-.66.06-.29,0-.42,0-.33,0-.41.06-.49.08-.4.07-.37.08-.3.06-.39.09-.15,0-.49.13C32.72,20.66,32.62,22.16,32.52,23.83Z"/><path class="cls-20" d="M32.43,61.77c.11,1.49.09,3.53.25,4.9a24.54,24.54,0,0,0,6.52.91h.25a24.54,24.54,0,0,0,6.43-1c.18-1.35.14-3.31.27-4.8A92.58,92.58,0,0,1,32.43,61.77Z"/><path class="cls-21" d="M56.45,60.58c1.18-3.63,1.13-7.56,1.41-11.39-2.75.27-6.52.34-11.05.56-.06,4.27-.26,8.43-.66,12.08,0,0,7.24-.28,10.31-1.22"/><path class="cls-22" d="M63.14,48.81c-.32,0-2.46.13-5.29.42C57.59,53,57.62,57,56.45,60.6A24.17,24.17,0,0,0,63.14,48.81Z"/><path class="cls-23" d="M22.13,60.52C20.95,56.89,21,53,20.72,49.14c2.75.27,6.52.34,11.05.56.06,4.27.26,8.43.66,12.08a93.45,93.45,0,0,1-10.31-1.28"/><path class="cls-24" d="M15.43,48.7c.32,0,2.46.13,5.29.42.26,3.78.24,7.78,1.4,11.38A24.17,24.17,0,0,1,15.43,48.7Z"/><path class="cls-25" d="M46.82,49.75c4.16-.16,7.91-.31,11.05-.56a79.62,79.62,0,0,0-.17-13.73c-3.08-.2-6.83-.5-11.07-.6C46.81,39.54,46.9,44.75,46.82,49.75Z"/><path class="cls-26" d="M57.67,35.46a79.36,79.36,0,0,1,.17,13.73c1.86-.15,3.85-.3,5.29-.45a25.44,25.44,0,0,0,.66-6.33,19.21,19.21,0,0,0-1.07-6.61C61.3,35.67,59.72,35.59,57.67,35.46Z"/><path class="cls-27" d="M31.78,49.69c-4.16-.16-7.91-.31-11.05-.56A79.62,79.62,0,0,1,20.9,35.4C24,35.2,27.75,35,32,34.85,31.81,39.52,31.7,44.68,31.78,49.69Z"/><path class="cls-28" d="M20.9,35.4a79.36,79.36,0,0,0-.17,13.73c-1.86-.15-3.85-.3-5.29-.45a25.44,25.44,0,0,1-.66-6.33,19.08,19.08,0,0,1,1.09-6.59C17.29,35.63,18.85,35.54,20.9,35.4Z"/><path class="cls-29" d="M46.61,34.85c-2.29-.06-4.73-.09-7.31-.09s-5,0-7.31.09c-.17,4.7-.27,9.83-.21,14.84,2.36.09,4.88.16,7.52.19s5.15,0,7.52-.13C46.88,44.74,46.78,39.55,46.61,34.85Z"/><path class="cls-30" d="M55.89,25a55.94,55.94,0,0,1,1.78,10.44l5.06.34S61.71,30.37,55.89,25Z"/><path class="cls-31" d="M22.71,25a55.94,55.94,0,0,0-1.78,10.44l-5.06.34S16.89,30.37,22.71,25Z"/><path class="cls-32" d="M55.85,25"/><path class="cls-32" d="M55.89,25"/><path class="cls-32" d="M45.93,23.64"/><path class="cls-33" d="M46,23.62l.15,2c.19,2.56.41,5.5.55,9.29,4.49.13,8.28.3,11.07.53A59.09,59.09,0,0,0,55.92,25,58.56,58.56,0,0,0,46,23.62Z"/><path class="cls-34" d="M32.52,23.83v1.81c-.19,2.56-.41,5.5-.55,9.29-4.49.13-8.28.3-11.07.53A59.09,59.09,0,0,1,22.71,25,68.14,68.14,0,0,1,32.52,23.83Z"/><path class="cls-35" d="M32.52,23.83s-.49,10-.53,11c0,0,11.65-.33,14.67.07,0,0-.49-10.81-.7-11.3C46,23.62,35.67,23.35,32.52,23.83Z"/><path class="cls-36" d="M56.45,60.6a21.87,21.87,0,0,1-10.58,6l.27-4.8A49.5,49.5,0,0,0,56.45,60.6Z"/><path class="cls-37" d="M32.43,61.77l.25,4.9a23.3,23.3,0,0,1-10.56-6.18S30.24,61.77,32.43,61.77Z"/><path class="cls-38" d="M46.82,49.75a95,95,0,0,1-.67,12.07,90.54,90.54,0,0,1-13.71-.05,66.25,66.25,0,0,1-.65-12.08S42.76,50.17,46.82,49.75Z"/><path class="cls-39" d="M64.07,41.79A16.49,16.49,0,0,0,63.36,37q-.16-.64-.36-1.27a20.87,20.87,0,0,0-5-8.9A24.68,24.68,0,0,0,56.21,25v0h0a24.5,24.5,0,0,0-8.83-5.21l0,0-.58-.18-.24-.07-.38-.11-.21-.06h0a24.5,24.5,0,0,0-5.43-.8h-.88v49h.19A24.46,24.46,0,0,0,48.2,66a21.74,21.74,0,0,0,8.52-5.42h0v0a22.91,22.91,0,0,0,4.68-6.36A24.42,24.42,0,0,0,64.1,43.06Q64.1,42.42,64.07,41.79Z"/></g><g id="Baloons"><polygon id="Shadow-3" data-name="Shadow" class="cls-6" points="31.54 150.85 50.31 169.95 84.97 169.95 85.03 138.3 58.31 110.94 47.03 107.77 41.07 101.67 23.2 125.92 31.68 134.55 31.54 150.85"/><g id="Baloon_yellow" data-name="Baloon yellow"><line class="cls-40" x1="32.08" y1="130.9" x2="32.08" y2="150.85"/><path class="cls-13" d="M32.08,97.79c-7.35,0-13.31,6.7-13.31,15s3.64,15.76,13.31,18.14c9.66-2.38,13.31-9.87,13.31-18.14S39.43,97.79,32.08,97.79Z"/><rect class="cls-13" x="29.71" y="129.31" width="4.75" height="3.17"/><path id="Shadow_yellow" data-name="Shadow yellow" class="cls-6" d="M32.08,97.71v53.06h.53V132.41h1.84v-2.32c7.89-3,10.93-9.85,10.93-17.4C45.39,104.42,39.43,97.72,32.08,97.71Z"/></g><g id="Baloon_red" data-name="Baloon red"><line class="cls-41" x1="49.74" y1="140.56" x2="49.74" y2="159.43"/><path class="cls-7" d="M49.74,107.46c-7.35,0-13.31,6.7-13.31,15s3.64,15.76,13.31,18.14C59.41,138.19,63,130.69,63,122.43S57.09,107.46,49.74,107.46Z"/><rect class="cls-7" x="47.37" y="138.98" width="4.75" height="3.17"/><path id="Shadow_red" data-name="Shadow red" class="cls-6" d="M49.74,107.46h0v52h.44V142.15h1.93v-2.32C60,136.88,63,130,63,122.43,63,114.16,57.09,107.46,49.74,107.46Z"/></g></g></g></g></g></g></g></svg>