<svg xmlns="http://www.w3.org/2000/svg" viewBox="0 0 141.79 141.63"><defs><style>.cls-1{fill:#80dada;}.cls-2,.cls-9{opacity:0.2;}.cls-3{fill:#fc9c1d;}.cls-4{fill:#ffcd2c;}.cls-5{fill:#750993;}.cls-6{fill:#9315c1;}.cls-7{fill:#bd1ed0;}.cls-8{fill:#d670e8;}.cls-9{fill:#450859;}</style></defs><title>Asset 21</title><g id="Layer_2" data-name="Layer 2"><g id="Icons_mehr" data-name="Icons + mehr"><g id="Screen_1" data-name="Screen 1"><g id="Princess"><rect id="Background" class="cls-1" width="141.62" height="141.62" rx="3.61" ry="3.61"/><path id="Shadow" class="cls-2" d="M21.06,92.91l23.51,48.71H138a3.6,3.6,0,0,0,3.61-3.61l.17-54.78L129.87,58.53,126,61.73l-8,8.42L106.72,46.66l-3.64,4.06L91.91,68.86l-3.14-1.53L74.21,37.16l-3.4,4.78-9,28.87-10-.67V66.51l-10-20.81-3.17,5L36.69,74.09l-14.5,1.07-2-8.47-3.88-8-1,3,3.89,5.77,3.28,10L25.1,90.64Z"/><g id="Princess-2" data-name="Princess"><g id="Light_Half" data-name="Light Half"><path id="Bottom" class="cls-3" d="M23.57,89.68H70.81a0,0,0,0,1,0,0v5.73a0,0,0,0,1,0,0H23.57a2.51,2.51,0,0,1-2.51-2.51v-.72A2.51,2.51,0,0,1,23.57,89.68Z"/><g id="Light_Half-2" data-name="Light Half"><path class="cls-4" d="M23.64,89.68s-2.08-22.19-11-31.47l8.45,9.42S37.91,89,38.35,47.79c0,0,21.4,50.5,32.46-9.28V89.68Z"/><ellipse class="cls-4" cx="13.96" cy="59.6" rx="2.57" ry="2.43"/><ellipse class="cls-4" cx="38.54" cy="47.29" rx="3.64" ry="3.43"/><path class="cls-4" d="M70.81,35.07a3.44,3.44,0,1,0,0,6.87Z"/></g><g id="Gem"><polygon class="cls-5" points="41.18 79.51 42.29 80.56 46.69 80.55 47.9 79.39 47.9 77.22 41.18 77.24 41.18 79.51"/><polygon class="cls-5" points="41.17 74.97 42.27 73.92 46.67 73.91 47.89 75.06 47.9 77.22 41.18 77.24 41.17 74.97"/><polygon class="cls-6" points="41.77 79.1 42.68 79.96 46.3 79.95 47.29 79.01 47.29 77.22 41.77 77.24 41.77 79.1"/><polygon class="cls-6" points="41.77 75.37 42.67 74.51 46.28 74.5 47.28 75.44 47.29 77.22 41.77 77.24 41.77 75.37"/><polygon class="cls-7" points="42.27 78.76 43.01 79.46 45.96 79.45 46.78 78.68 46.77 77.23 42.27 77.24 42.27 78.76"/><polygon class="cls-7" points="42.26 75.71 43 75.01 45.95 75 46.77 75.77 46.77 77.23 42.27 77.24 42.26 75.71"/><polygon class="cls-8" points="43.08 78.24 43.57 78.7 45.53 78.7 46.07 78.18 46.06 77.22 43.08 77.23 43.08 78.24"/><polygon class="cls-8" points="43.07 76.22 43.56 75.75 45.52 75.75 46.06 76.26 46.06 77.22 43.08 77.23 43.07 76.22"/></g></g><g id="Dark_half" data-name="Dark half"><path id="Bottom-2" data-name="Bottom" class="cls-3" d="M73.31,89.68h47.25a0,0,0,0,1,0,0v5.73a0,0,0,0,1,0,0H73.31a2.51,2.51,0,0,1-2.51-2.51v-.72a2.51,2.51,0,0,1,2.51-2.51Z" transform="translate(191.37 185.1) rotate(-180)"/><g id="Half_Shadow" data-name="Half Shadow"><path class="cls-4" d="M118,89.68s2.08-22.19,11-31.47l-8.45,9.42S103.71,89,103.27,47.79c0,0-21.4,50.5-32.46-9.28V89.68Z"/><ellipse class="cls-4" cx="127.66" cy="59.6" rx="2.57" ry="2.43"/><ellipse class="cls-4" cx="103.08" cy="47.29" rx="3.64" ry="3.43"/><path class="cls-4" d="M70.81,35.07a3.44,3.44,0,1,1,0,6.87Z"/><g class="cls-2"><path d="M118,89.68s2.08-22.19,11-31.47l-8.45,9.42S103.71,89,103.27,47.79c0,0-21.4,50.5-32.46-9.28V89.68Z"/><ellipse cx="127.66" cy="59.6" rx="2.57" ry="2.43"/><ellipse cx="103.08" cy="47.29" rx="3.64" ry="3.43"/><path d="M70.81,35.07a3.44,3.44,0,1,1,0,6.87Z"/></g></g><g id="Gem-2" data-name="Gem"><polygon class="cls-5" points="100.44 79.51 99.33 80.56 94.93 80.55 93.72 79.39 93.72 77.22 100.44 77.24 100.44 79.51"/><polygon class="cls-5" points="100.45 74.97 99.35 73.92 94.95 73.91 93.73 75.06 93.72 77.22 100.44 77.24 100.45 74.97"/><polygon class="cls-6" points="99.85 79.1 98.94 79.96 95.33 79.95 94.33 79.01 94.33 77.22 99.85 77.24 99.85 79.1"/><polygon class="cls-6" points="99.86 75.37 98.95 74.51 95.34 74.5 94.34 75.44 94.33 77.22 99.85 77.24 99.86 75.37"/><polygon class="cls-7" points="99.35 78.76 98.61 79.46 95.66 79.45 94.84 78.68 94.85 77.23 99.36 77.24 99.35 78.76"/><polygon class="cls-7" points="99.36 75.71 98.62 75.01 95.67 75 94.85 75.77 94.85 77.23 99.36 77.24 99.36 75.71"/><polygon class="cls-8" points="98.54 78.24 98.05 78.7 96.09 78.7 95.55 78.18 95.56 77.22 98.54 77.23 98.54 78.24"/><polygon class="cls-8" points="98.55 76.22 98.06 75.75 96.1 75.75 95.56 76.26 95.56 77.22 98.54 77.23 98.55 76.22"/></g><path id="Bottom_Shadow" data-name="Bottom Shadow" class="cls-2" d="M73.31,89.68h47.25a0,0,0,0,1,0,0v5.73a0,0,0,0,1,0,0H73.31a2.51,2.51,0,0,1-2.51-2.51v-.72A2.51,2.51,0,0,1,73.31,89.68Z" transform="translate(191.37 185.1) rotate(-180)"/></g><g id="Big_Gem" data-name="Big Gem"><polygon class="cls-5" points="61.77 74.72 61.85 78.01 68.93 84.41 72.77 84.33 76.31 80.84 65.49 71.06 61.77 74.72"/><polygon class="cls-5" points="69.2 67.4 72.69 67.33 79.77 73.73 79.85 77.35 76.31 80.84 65.49 71.06 69.2 67.4"/><polygon class="cls-6" points="63.4 74.93 63.46 77.63 69.27 82.88 72.42 82.82 75.33 79.95 66.44 71.92 63.4 74.93"/><polygon class="cls-6" points="69.49 68.92 72.35 68.86 78.17 74.11 78.23 77.08 75.33 79.95 66.44 71.92 69.49 68.92"/><polygon class="cls-7" points="64.75 75.1 64.8 77.31 69.55 81.6 72.13 81.55 74.5 79.21 67.24 72.64 64.75 75.1"/><polygon class="cls-7" points="69.73 70.19 72.07 70.14 76.82 74.43 76.88 76.86 74.5 79.21 67.24 72.64 69.73 70.19"/><polygon class="cls-8" points="66.91 75.44 66.94 76.9 70.09 79.75 71.8 79.71 73.37 78.16 68.56 73.81 66.91 75.44"/><polygon class="cls-8" points="70.21 72.19 71.76 72.15 74.91 75 74.95 76.61 73.37 78.16 68.56 73.81 70.21 72.19"/><polygon class="cls-9" points="79.76 73.75 72.68 67.35 70.81 67.39 70.81 84.39 72.76 84.35 76.3 80.86 79.85 77.37 79.76 73.75"/></g></g></g></g></g></g></svg>