<svg xmlns="http://www.w3.org/2000/svg" viewBox="0 0 140.61 140.61"><defs><style>.cls-1{fill:#43a2a8;}.cls-2{opacity:0.2;}.cls-3{fill:#ad2d27;}.cls-4{fill:#ffcd2c;}.cls-5{fill:#388648;}.cls-6{fill:#56d16b;}</style></defs><title>Asset 20</title><g id="Layer_2" data-name="Layer 2"><g id="Icons_mehr" data-name="Icons + mehr"><g id="Screen_1" data-name="Screen 1"><g id="Queen"><rect id="Background" class="cls-1" width="140.61" height="140.61" rx="3.58" ry="3.58"/><polygon id="Shadow" class="cls-2" points="28.13 93.9 50.67 140.61 140.61 140.61 140.61 71.67 123.57 36.36 101.27 78.03 28.13 93.9"/><g id="Queen-2" data-name="Queen"><path id="Rigt_Red" data-name="Rigt Red" class="cls-3" d="M109.06,51.89s-14-10.16-32.5-8.45A110.51,110.51,0,0,1,80,76h21.62S103.73,59.63,109.06,51.89Z"/><path id="Shadow_Red" data-name="Shadow Red" class="cls-2" d="M109.06,51.89s-14-10.16-32.5-8.45A110.51,110.51,0,0,1,80,76h21.62S103.73,59.63,109.06,51.89Z"/><path id="Left_Half" data-name="Left Half" class="cls-4" d="M28.18,94.1s2.54-35.93-11.13-57.55c0,0,17.49,6.68,21.94,39.11H60.61S59,42.59,70.31,31.78V94.1Z"/><path id="Left_Red" data-name="Left Red" class="cls-3" d="M31.56,51.89s14-10.16,32.5-8.45A110.51,110.51,0,0,0,60.6,76H39S36.89,59.63,31.56,51.89Z"/><g id="Gem"><circle class="cls-5" cx="47.65" cy="85.34" r="5.44"/><circle class="cls-6" cx="49.22" cy="82.45" r="1.41"/><circle class="cls-6" cx="50.46" cy="84.34" r="0.59"/></g><path id="Right_Half" data-name="Right Half" class="cls-4" d="M112.44,94.1s-2.54-35.93,11.13-57.55c0,0-17.49,6.68-21.94,39.11H80s1.58-33.07-9.7-43.88V94.1Z"/><g id="Big_Gem" data-name="Big Gem"><ellipse class="cls-5" cx="70.31" cy="56.51" rx="5.5" ry="10.69"/><ellipse class="cls-6" cx="71.33" cy="52.86" rx="1.88" ry="3.65"/></g><g id="Gem-2" data-name="Gem"><circle class="cls-5" cx="91.06" cy="84.93" r="5.44"/><circle class="cls-6" cx="92.64" cy="82.05" r="1.41"/><circle class="cls-6" cx="93.87" cy="83.94" r="0.59"/></g><path id="Shadow_Half" data-name="Shadow Half" class="cls-2" d="M112.44,94.1s-2.54-35.93,11.13-57.55c0,0-17.49,6.68-21.94,39.11H80s1.58-33.07-9.7-43.88V94.1Z"/></g></g></g></g></g></svg>