<svg xmlns="http://www.w3.org/2000/svg" viewBox="0 0 193.44 193.44"><defs><style>.cls-1{fill:#ef5014;}.cls-2{opacity:0.2;}.cls-3{fill:#b8823a;}.cls-4{fill:#f1b183;}.cls-5{fill:#ba8238;}.cls-6{fill:#31242e;}.cls-7{fill:#ffd9b5;}.cls-8{fill:#d2dbfa;}.cls-9{fill:#2b1f29;}.cls-10{fill:#e7f0ff;}.cls-11{fill:#ff7877;}.cls-12{fill:#505052;}.cls-13{fill:#7d7e80;}.cls-14{fill:#4f4d52;}</style></defs><title>Asset 34</title><g id="Layer_2" data-name="Layer 2"><g id="Icons_mehr" data-name="Icons + mehr"><g id="Screen_7" data-name="Screen 7"><rect class="cls-1" width="193.44" height="193.44"/><g id="Make_up_Bag_smal" data-name="Make up Bag smal"><g class="cls-2"><rect x="61.96" y="90.01" width="23.92" height="12.78" transform="matrix(0.98, -0.18, 0.18, 0.98, -16.02, 14.75)"/><polygon points="63.54 39.23 46.51 42.32 62.32 92 72.78 90.11 83.23 88.21 80.58 36.14 63.54 39.23"/><polygon points="80.75 39.63 80.58 36.14 63.54 39.23 46.51 42.32 47.57 45.66 80.75 39.63"/><polygon class="cls-2" points="74.05 102.59 73.89 102.9 86.84 100.55 84.56 87.97 83.25 88.21 80.59 36.14 63.56 39.23 62.09 39.5 74.05 102.59"/></g><rect class="cls-3" x="58.58" y="89.34" width="23.92" height="12.78" transform="translate(-15.96 14.13) rotate(-10.29)"/><polygon class="cls-4" points="60.17 38.57 43.14 41.66 58.95 91.34 69.4 89.44 79.85 87.54 77.2 35.48 60.17 38.57"/><polygon class="cls-5" points="77.38 38.97 77.2 35.48 60.17 38.57 43.14 41.66 44.2 44.99 77.38 38.97"/><polygon class="cls-2" points="70.67 101.92 70.51 102.23 83.47 99.88 81.19 87.31 79.87 87.54 77.22 35.48 60.19 38.57 58.71 38.83 70.67 101.92"/><path class="cls-2" d="M144.92,86.27a21.09,21.09,0,0,0-22.66-14.06l-.57-1.66a21.08,21.08,0,1,0-8.07,2.55l.64,1.86a21.09,21.09,0,1,0,30.66,11.31Z"/><circle class="cls-6" cx="122.3" cy="90.99" r="21.09" transform="translate(-22.94 44.71) rotate(-18.97)"/><circle class="cls-7" cx="122.3" cy="90.99" r="17.09" transform="translate(-22.94 44.71) rotate(-18.97)"/><circle class="cls-6" cx="108.74" cy="50" r="21.09" transform="translate(-10.35 38.07) rotate(-18.97)"/><circle class="cls-8" cx="108.74" cy="50" r="17.09" transform="translate(-10.35 38.07) rotate(-18.97)"/><rect class="cls-9" x="110.86" y="67.57" width="8.46" height="4.92" transform="translate(-16.52 41.22) rotate(-18.97)"/><path class="cls-10" d="M109.18,66.8l13.51-26.16q-.21-.37-.44-.73l-13.92,27Z"/><path class="cls-10" d="M105.9,66.81l14.9-28.86a17.45,17.45,0,0,0-1.35-1.41L104,66.53A17.48,17.48,0,0,0,105.9,66.81Z"/><path class="cls-2" d="M142.24,84.14a21.09,21.09,0,0,0-22.66-14.06L119,68.42a21.08,21.08,0,0,0-15.75-38.78l25.89,81.3A21.09,21.09,0,0,0,142.24,84.14Z"/><g class="cls-2"><path d="M161.52,109.19a6.15,6.15,0,0,0-6.14-5.72H61.1A6.15,6.15,0,0,0,55,109.19l-3.87,54.56a6.15,6.15,0,0,0,6.15,6.15h102a6.15,6.15,0,0,0,6.15-6.15Z"/><rect x="61.89" y="102.79" width="95.35" height="1.36"/><rect x="153.87" y="103.06" width="2.24" height="0.82"/><rect x="149.64" y="103.06" width="2.24" height="0.82"/><rect x="146.16" y="103.06" width="2.24" height="0.82"/><rect x="141.93" y="103.06" width="2.24" height="0.82"/><rect x="138.34" y="103.06" width="2.24" height="0.82"/><rect x="134.11" y="103.06" width="2.24" height="0.82"/><rect x="130.63" y="103.06" width="2.24" height="0.82"/><rect x="126.4" y="103.06" width="2.24" height="0.82"/><rect x="122.48" y="103.06" width="2.24" height="0.82"/><rect x="118.25" y="103.06" width="2.24" height="0.82"/><rect x="114.77" y="103.06" width="2.24" height="0.82"/><rect x="110.55" y="103.06" width="2.24" height="0.82"/><rect x="106.95" y="103.06" width="2.24" height="0.82"/><rect x="102.72" y="103.06" width="2.24" height="0.82"/><rect x="99.24" y="103.06" width="2.24" height="0.82"/><rect x="95.01" y="103.06" width="2.24" height="0.82"/><rect x="91.02" y="103.06" width="2.24" height="0.82"/><rect x="87.54" y="103.06" width="2.24" height="0.82"/><rect x="83.31" y="103.06" width="2.24" height="0.82"/><rect x="79.71" y="103.06" width="2.24" height="0.82"/><rect x="75.48" y="103.06" width="2.24" height="0.82"/><rect x="72" y="103.06" width="2.24" height="0.82"/><rect x="67.78" y="103.06" width="2.24" height="0.82"/><circle cx="60.93" cy="103.06" r="2.09"/><path d="M48.63,103.92l-.15,0h-.06a4.23,4.23,0,1,0,2.88,7.89h0s4.11-1.32,9.22-8.44C60.51,103.42,51.16,103.46,48.63,103.92Zm.93,5.86a1.61,1.61,0,1,1,1.61-1.61A1.61,1.61,0,0,1,49.55,109.77Z"/></g><path class="cls-11" d="M151.6,100.28a6.15,6.15,0,0,0-6.14-5.72H51.17A6.15,6.15,0,0,0,45,100.28l-3.87,54.56A6.15,6.15,0,0,0,47.32,161h102a6.15,6.15,0,0,0,6.15-6.15Z"/><rect class="cls-12" x="51.97" y="93.88" width="95.35" height="1.36"/><rect class="cls-13" x="143.94" y="94.15" width="2.24" height="0.82"/><rect class="cls-13" x="139.72" y="94.15" width="2.24" height="0.82"/><rect class="cls-13" x="136.24" y="94.15" width="2.24" height="0.82"/><rect class="cls-13" x="132.01" y="94.15" width="2.24" height="0.82"/><rect class="cls-13" x="128.41" y="94.15" width="2.24" height="0.82"/><rect class="cls-13" x="124.18" y="94.15" width="2.24" height="0.82"/><rect class="cls-13" x="120.7" y="94.15" width="2.24" height="0.82"/><rect class="cls-13" x="116.47" y="94.15" width="2.24" height="0.82"/><rect class="cls-13" x="112.56" y="94.15" width="2.24" height="0.82"/><rect class="cls-13" x="108.33" y="94.15" width="2.24" height="0.82"/><rect class="cls-13" x="104.85" y="94.15" width="2.24" height="0.82"/><rect class="cls-13" x="100.62" y="94.15" width="2.24" height="0.82"/><rect class="cls-13" x="97.03" y="94.15" width="2.24" height="0.82"/><rect class="cls-13" x="92.8" y="94.15" width="2.24" height="0.82"/><rect class="cls-13" x="89.32" y="94.15" width="2.24" height="0.82"/><rect class="cls-13" x="85.09" y="94.15" width="2.24" height="0.82"/><rect class="cls-13" x="81.09" y="94.15" width="2.24" height="0.82"/><rect class="cls-13" x="77.61" y="94.15" width="2.24" height="0.82"/><rect class="cls-13" x="73.38" y="94.15" width="2.24" height="0.82"/><rect class="cls-13" x="69.79" y="94.15" width="2.24" height="0.82"/><rect class="cls-13" x="65.56" y="94.15" width="2.24" height="0.82"/><rect class="cls-13" x="62.08" y="94.15" width="2.24" height="0.82"/><rect class="cls-13" x="57.85" y="94.15" width="2.24" height="0.82"/><circle class="cls-14" cx="51.01" cy="94.15" r="2.09"/><path class="cls-14" d="M38.7,95l-.15,0h-.06a4.23,4.23,0,1,0,2.88,7.89h0s4.11-1.32,9.22-8.44C50.58,94.51,41.24,94.55,38.7,95Zm.93,5.86a1.61,1.61,0,1,1,1.61-1.61A1.61,1.61,0,0,1,39.63,100.86Z"/><path class="cls-2" d="M151.6,100.28a6.15,6.15,0,0,0-4.28-5.43v-1h-52V161h54a6.15,6.15,0,0,0,6.15-6.15Z"/></g></g></g></g></svg>