<svg xmlns="http://www.w3.org/2000/svg" xmlns:xlink="http://www.w3.org/1999/xlink" viewBox="0 0 137.66 137.66"><defs><style>.cls-1,.cls-3{fill:none;}.cls-2{fill:#ffd21f;}.cls-3{stroke:#403408;stroke-linecap:round;stroke-miterlimit:10;stroke-width:7px;}.cls-4{fill:#403408;}.cls-5{fill:#ff5a58;}.cls-6{clip-path:url(#clip-path);}.cls-7{fill:#fff;}</style><clipPath id="clip-path"><path id="_Clipping_Path_" data-name="&lt;Clipping Path&gt;" class="cls-1" d="M33.53,80.53a2.11,2.11,0,0,0-2,2.9c2.94,7.17,12.75,25.23,37.1,25.23S103,90.47,106.08,83.23a2.11,2.11,0,0,0-2-2.91Z"/></clipPath></defs><title>Asset 2</title><g id="Layer_2" data-name="Layer 2"><g id="OBJECTS"><g id="_Group_" data-name="&lt;Group&gt;"><g id="_Group_2" data-name="&lt;Group&gt;"><g id="_Group_3" data-name="&lt;Group&gt;"><circle id="_Path_" data-name="&lt;Path&gt;" class="cls-2" cx="68.83" cy="68.83" r="68.83"/></g><g id="_Group_4" data-name="&lt;Group&gt;"><path id="_Path_2" data-name="&lt;Path&gt;" class="cls-3" d="M28.12,61.21S28,50.54,37.5,50.54s9.29,10.58,9.29,10.58"/><path id="_Path_3" data-name="&lt;Path&gt;" class="cls-3" d="M90.87,61.21s-.12-10.67,9.37-10.67,9.29,10.58,9.29,10.58"/></g><g id="_Group_5" data-name="&lt;Group&gt;"><g id="_Group_6" data-name="&lt;Group&gt;"><path id="_Path_4" data-name="&lt;Path&gt;" class="cls-4" d="M33.53,80.53a2.11,2.11,0,0,0-2,2.9c2.94,7.17,12.75,25.23,37.1,25.23S103,90.47,106.08,83.23a2.11,2.11,0,0,0-2-2.91Z"/></g><path id="_Path_5" data-name="&lt;Path&gt;" class="cls-5" d="M44.52,84.86s2.83,39.81,25.19,39.24,23.1-40.47,23.1-40.47"/><g id="_Clip_Group_" data-name="&lt;Clip Group&gt;"><g class="cls-6"><path id="_Path_6" data-name="&lt;Path&gt;" class="cls-7" d="M36.68,79.71c-1.36,0-2.3.41-1.78.78,2.68,1.93,11.62,6.79,33.79,6.79s31.31-4.89,34.07-6.84c.53-.37-.42-.78-1.79-.78Z"/></g></g></g></g></g></g></g></svg>