<svg xmlns="http://www.w3.org/2000/svg" xmlns:xlink="http://www.w3.org/1999/xlink" viewBox="0 0 153.02 137.66"><defs><style>.cls-1,.cls-3,.cls-4{fill:none;}.cls-2{fill:#ffd21f;}.cls-3,.cls-4{stroke:#403408;stroke-linecap:round;stroke-linejoin:round;}.cls-3{stroke-width:8.71px;}.cls-4{stroke-width:8.61px;}.cls-5{fill:#2fa7bf;}.cls-6{fill:#403408;}.cls-7{clip-path:url(#clip-path);}.cls-8{fill:#ff5a58;}</style><clipPath id="clip-path"><path id="_Clipping_Path_" data-name="&lt;Clipping Path&gt;" class="cls-1" d="M41.8,79.45a2.11,2.11,0,0,0-2,2.9c2.94,7.17,12.75,25.23,37.1,25.23s34.37-18.18,37.4-25.42a2.11,2.11,0,0,0-2-2.91Z"/></clipPath></defs><title>Asset 5</title><g id="Layer_2" data-name="Layer 2"><g id="OBJECTS"><g id="_Group_" data-name="&lt;Group&gt;"><g id="_Group_2" data-name="&lt;Group&gt;"><g id="_Group_3" data-name="&lt;Group&gt;"><circle id="_Path_" data-name="&lt;Path&gt;" class="cls-2" cx="77.1" cy="68.83" r="68.83"/></g><g id="_Group_4" data-name="&lt;Group&gt;"><polyline id="_Path_2" data-name="&lt;Path&gt;" class="cls-3" points="39.41 45.14 55.93 54.51 39.54 63.8"/><polyline id="_Path_3" data-name="&lt;Path&gt;" class="cls-4" points="112.83 63.81 96.68 54.43 112.7 45.14"/></g><path id="_Path_4" data-name="&lt;Path&gt;" class="cls-5" d="M148.86,65.26A11,11,0,0,1,135.16,82.5C130.4,78.71,121,57.17,121,57.17S144.1,61.47,148.86,65.26Z"/><path id="_Path_5" data-name="&lt;Path&gt;" class="cls-5" d="M4.16,65.26A11,11,0,0,0,17.86,82.5C22.62,78.71,32,57.17,32,57.17S8.92,61.47,4.16,65.26Z"/><g id="_Group_5" data-name="&lt;Group&gt;"><path id="_Path_6" data-name="&lt;Path&gt;" class="cls-6" d="M41.8,79.45a2.11,2.11,0,0,0-2,2.9c2.94,7.17,12.75,25.23,37.1,25.23s34.37-18.18,37.4-25.42a2.11,2.11,0,0,0-2-2.91Z"/><g id="_Clip_Group_" data-name="&lt;Clip Group&gt;"><g class="cls-7"><ellipse id="_Path_7" data-name="&lt;Path&gt;" class="cls-8" cx="76.56" cy="105.28" rx="26.5" ry="14.38"/></g></g></g></g></g></g></g></svg>