<svg xmlns="http://www.w3.org/2000/svg" viewBox="0 0 137.66 137.66"><defs><style>.cls-1{fill:#ffd21f;}.cls-2{fill:#403408;}.cls-3,.cls-5{fill:none;stroke:#403408;stroke-linecap:round;stroke-miterlimit:10;}.cls-3{stroke-width:7px;}.cls-4{fill:#ff758a;opacity:0.6;}.cls-5{stroke-width:4px;}</style></defs><title>Asset 4</title><g id="Layer_2" data-name="Layer 2"><g id="OBJECTS"><g id="_Group_" data-name="&lt;Group&gt;"><g id="_Group_2" data-name="&lt;Group&gt;"><g id="_Group_3" data-name="&lt;Group&gt;"><circle id="_Path_" data-name="&lt;Path&gt;" class="cls-1" cx="68.83" cy="68.83" r="68.83"/></g><g id="_Group_4" data-name="&lt;Group&gt;"><path id="_Path_2" data-name="&lt;Path&gt;" class="cls-2" d="M40.5,72.07h0a5,5,0,0,1-5-5v-12a5,5,0,0,1,5-5h0a5,5,0,0,1,5,5v12A5,5,0,0,1,40.5,72.07Z"/><path id="_Path_3" data-name="&lt;Path&gt;" class="cls-2" d="M103.16,72.07h0a5,5,0,0,1-5-5v-12a5,5,0,0,1,5-5h0a5,5,0,0,1,5,5v12A5,5,0,0,1,103.16,72.07Z"/><path id="_Path_4" data-name="&lt;Path&gt;" class="cls-2" d="M108.16,52.53v2.08a1.46,1.46,0,0,1-1.46,1.46h-17a3.55,3.55,0,0,1-3.54-3.54h0A3.55,3.55,0,0,1,89.7,49h14.92A3.55,3.55,0,0,1,108.16,52.53Z"/><path id="_Path_5" data-name="&lt;Path&gt;" class="cls-2" d="M45.5,52.53v1.83a1.71,1.71,0,0,1-1.71,1.71H27a3.55,3.55,0,0,1-3.54-3.54h0A3.55,3.55,0,0,1,27,49H42A3.55,3.55,0,0,1,45.5,52.53Z"/></g><path id="_Path_6" data-name="&lt;Path&gt;" class="cls-3" d="M86.16,89.58s-4.65,13.58-17.41,13.58S51.5,89.68,51.5,89.68"/><g id="_Group_5" data-name="&lt;Group&gt;"><circle id="_Path_7" data-name="&lt;Path&gt;" class="cls-4" cx="20.64" cy="77.5" r="10.02"/><circle id="_Path_8" data-name="&lt;Path&gt;" class="cls-4" cx="117.02" cy="77.5" r="10.02"/></g><g id="_Group_6" data-name="&lt;Group&gt;"><path id="_Path_9" data-name="&lt;Path&gt;" class="cls-5" d="M28.29,38.6s9.86,4.06,13.38-4.77"/><path id="_Path_10" data-name="&lt;Path&gt;" class="cls-5" d="M93.25,34.74c8.43-4.38,13.12,5.11,13.12,5.11"/></g></g></g></g></g></svg>