<svg xmlns="http://www.w3.org/2000/svg" viewBox="0 0 137.66 137.66"><defs><style>.cls-1{fill:#ffd21f;}.cls-2{fill:none;stroke:#403408;stroke-linecap:round;stroke-miterlimit:10;stroke-width:7px;}.cls-3{fill:#ff5a58;}</style></defs><title>Asset 3</title><g id="Layer_2" data-name="Layer 2"><g id="OBJECTS"><g id="_Group_" data-name="&lt;Group&gt;"><g id="_Group_2" data-name="&lt;Group&gt;"><g id="_Group_3" data-name="&lt;Group&gt;"><circle id="_Path_" data-name="&lt;Path&gt;" class="cls-1" cx="68.83" cy="68.83" r="68.83" transform="translate(-2.11 135.48) rotate(-88.21)"/></g><path id="_Path_2" data-name="&lt;Path&gt;" class="cls-2" d="M99.83,78s-6.55,9.92-31.14,9.92S37.83,78.1,37.83,78.1"/><g id="_Group_4" data-name="&lt;Group&gt;"><g id="_Group_5" data-name="&lt;Group&gt;"><path id="_Path_3" data-name="&lt;Path&gt;" class="cls-3" d="M92.44,39.51c3.47-1.38,6.73.05,8.79,2.89,2.15-2.77,5.46-4.1,8.88-2.6,4.3,1.88,5.13,6.39,3.26,10.69-1.35,3.1-7.25,8.88-10.44,11.86a2.91,2.91,0,0,1-4-.07c-3.08-3.08-8.79-9-10-12.19C87.1,45.73,88.08,41.25,92.44,39.51Z"/></g><g id="_Group_6" data-name="&lt;Group&gt;"><path id="_Path_4" data-name="&lt;Path&gt;" class="cls-3" d="M27.77,39.51c3.47-1.38,6.73.05,8.79,2.89,2.15-2.77,5.46-4.1,8.88-2.6,4.3,1.88,5.13,6.39,3.26,10.69-1.35,3.1-7.25,8.88-10.44,11.86a2.91,2.91,0,0,1-4-.07c-3.08-3.08-8.79-9-10-12.19C22.43,45.73,23.41,41.25,27.77,39.51Z"/></g></g></g></g></g></g></svg>